<svg xmlns="http://www.w3.org/2000/svg" xmlns:xlink="http://www.w3.org/1999/xlink" width="940" zoomAndPan="magnify" viewBox="0 0 705 591.000005" height="788" preserveAspectRatio="xMidYMid meet" version="1.0"><defs><clipPath id="cf1223a82f"><path d="M 0.59375 0 L 704.402344 0 L 704.402344 590 L 0.59375 590 Z M 0.59375 0 " clip-rule="nonzero"/></clipPath><clipPath id="35b94fbf20"><path d="M 117 123 L 348 123 L 348 437 L 117 437 Z M 117 123 " clip-rule="nonzero"/></clipPath><clipPath id="47550aa0c0"><path d="M 108.710938 390.554688 L 240.605469 113.894531 L 356.902344 169.339844 L 225.007812 446 Z M 108.710938 390.554688 " clip-rule="nonzero"/></clipPath><clipPath id="832fee93d5"><path d="M 120.632812 365.546875 L 228.597656 139.085938 C 235.179688 125.273438 251.714844 119.414062 265.527344 126 L 331.808594 157.601562 C 345.621094 164.183594 351.480469 180.71875 344.894531 194.527344 L 236.929688 420.992188 C 230.34375 434.804688 213.8125 440.660156 200 434.078125 L 133.714844 402.476562 C 119.90625 395.890625 114.046875 379.359375 120.632812 365.546875 Z M 120.632812 365.546875 " clip-rule="nonzero"/></clipPath><clipPath id="ce830ffa69"><path d="M 379 166 L 577 166 L 577 448 L 379 448 Z M 379 166 " clip-rule="nonzero"/></clipPath><clipPath id="1b1ef222e7"><path d="M 359.8125 198.523438 L 469.984375 146.660156 L 596.605469 415.632812 L 486.433594 467.5 Z M 359.8125 198.523438 " clip-rule="nonzero"/></clipPath><clipPath id="c72b3aafdb"><path d="M 414.898438 172.589844 C 445.320312 158.269531 481.59375 171.320312 495.914062 201.746094 L 570.617188 360.425781 C 584.941406 390.851562 571.886719 427.125 541.464844 441.445312 C 511.042969 455.769531 474.769531 442.714844 460.445312 412.292969 L 385.742188 253.609375 C 371.421875 223.1875 384.472656 186.914062 414.898438 172.589844 Z M 414.898438 172.589844 " clip-rule="nonzero"/></clipPath><clipPath id="4a2520744b"><path d="M 254 137 L 483 137 L 483 449 L 254 449 Z M 254 137 " clip-rule="nonzero"/></clipPath><clipPath id="8bdf280cd4"><path d="M 245.125 402.703125 L 375.785156 128.238281 L 492.113281 183.621094 L 361.453125 458.082031 Z M 245.125 402.703125 " clip-rule="nonzero"/></clipPath><clipPath id="535ffa75ee"><path d="M 257.035156 377.6875 L 363.828125 153.359375 C 370.402344 139.546875 386.933594 133.679688 400.75 140.253906 L 467.050781 171.820312 C 480.863281 178.394531 486.734375 194.925781 480.15625 208.738281 L 373.363281 433.066406 C 366.785156 446.882812 350.253906 452.75 336.441406 446.171875 L 270.140625 414.609375 C 256.324219 408.035156 250.457031 391.503906 257.035156 377.6875 Z M 257.035156 377.6875 " clip-rule="nonzero"/></clipPath><clipPath id="57f10172e1"><path d="M 356 251 L 482 251 L 482 362 L 356 362 Z M 356 251 " clip-rule="nonzero"/></clipPath><clipPath id="168c8a636d"><path d="M 480.898438 247.882812 L 483.886719 360.152344 L 358.144531 363.503906 L 355.15625 251.234375 Z M 480.898438 247.882812 " clip-rule="nonzero"/></clipPath><clipPath id="a121c516c7"><path d="M 358.007812 363.589844 L 355.015625 251.320312 L 480.757812 247.96875 L 483.75 360.238281 Z M 358.007812 363.589844 " clip-rule="nonzero"/></clipPath><clipPath id="7a64180f40"><path d="M 335.730469 225 L 402.644531 225 L 402.644531 392.519531 L 335.730469 392.519531 Z M 335.730469 225 " clip-rule="nonzero"/></clipPath><clipPath id="0f78731041"><path d="M 397.117188 248.117188 C 393.328125 369.429688 385.746094 374.738281 381.195312 374.738281 C 376.648438 374.738281 372.097656 370.945312 369.066406 364.121094 C 360.726562 345.925781 356.933594 261.765625 364.515625 241.296875 C 367.550781 232.953125 372.855469 226.132812 377.40625 225.375 C 382.710938 225.375 391.054688 229.164062 394.84375 236.746094 C 404.699219 257.976562 394.085938 368.671875 383.472656 385.351562 C 380.4375 390.660156 376.648438 392.175781 372.097656 392.175781 C 368.308594 392.175781 362.242188 389.898438 358.449219 383.835938 C 349.351562 370.945312 338.738281 316.355469 341.769531 298.917969 C 343.285156 290.578125 347.078125 283.753906 351.625 282.238281 C 356.175781 280.722656 363.757812 282.238281 367.550781 287.542969 C 375.128906 297.402344 376.648438 351.992188 367.550781 363.363281 C 363 369.429688 350.867188 371.703125 345.5625 368.671875 C 339.496094 364.878906 339.496094 348.199219 337.980469 337.585938 C 337.222656 325.453125 335.703125 308.015625 338.738281 298.917969 C 341.011719 292.851562 344.046875 287.542969 349.351562 285.269531 C 354.660156 283.753906 364.515625 285.269531 369.824219 289.820312 C 376.648438 294.367188 384.230469 311.046875 381.953125 317.113281 C 380.4375 322.421875 371.339844 326.96875 366.789062 326.96875 C 362.242188 326.96875 356.175781 323.179688 353.902344 319.386719 C 352.386719 314.839844 355.417969 301.949219 358.449219 298.160156 C 360.726562 295.886719 364.515625 295.125 368.308594 295.125 C 372.097656 295.886719 378.921875 298.917969 380.4375 302.707031 C 383.472656 307.257812 381.953125 317.871094 378.921875 321.664062 C 376.648438 324.695312 369.824219 326.96875 365.273438 326.96875 C 361.484375 326.210938 355.417969 322.421875 353.144531 317.871094 C 351.625 313.324219 353.902344 302.707031 356.933594 299.675781 C 359.96875 295.886719 366.789062 295.125 371.339844 295.886719 C 375.890625 296.644531 380.4375 301.949219 381.953125 305.742188 C 383.472656 309.53125 380.4375 320.148438 380.4375 320.148438 C 380.4375 320.148438 382.710938 306.5 382.710938 306.5 C 381.953125 305.742188 381.195312 320.148438 377.40625 323.179688 C 373.613281 326.210938 363.757812 326.96875 359.96875 324.695312 C 355.417969 322.421875 349.351562 313.324219 350.867188 309.53125 C 352.386719 304.984375 365.273438 298.917969 369.066406 301.191406 C 375.890625 305.742188 374.371094 352.75 367.550781 363.363281 C 364.515625 368.671875 356.933594 371.703125 352.386719 370.945312 C 347.835938 370.945312 342.527344 366.394531 339.496094 359.574219 C 334.1875 347.441406 334.1875 303.464844 341.769531 292.09375 C 346.320312 285.269531 356.933594 281.480469 362.242188 282.996094 C 366.03125 283.753906 368.308594 287.542969 370.582031 293.609375 C 377.40625 308.773438 391.054688 373.21875 383.472656 385.351562 C 380.4375 390.660156 373.613281 392.933594 369.066406 392.175781 C 364.515625 391.417969 359.96875 387.625 357.691406 380.800781 C 350.109375 360.332031 353.902344 263.28125 364.515625 241.296875 C 368.308594 232.195312 375.890625 225.375 381.195312 225.375 C 386.503906 226.132812 391.8125 232.195312 394.84375 240.535156 C 403.183594 261.007812 405.457031 341.375 396.359375 361.089844 C 393.328125 369.429688 385.746094 375.496094 381.195312 374.738281 C 376.648438 374.738281 371.339844 368.671875 369.066406 361.089844 C 361.484375 341.375 359.207031 262.523438 368.308594 245.085938 C 372.097656 237.503906 379.679688 232.953125 384.230469 233.714844 C 388.777344 234.472656 397.117188 248.117188 397.117188 248.117188 " clip-rule="nonzero"/></clipPath><clipPath id="f7b11607cc"><path d="M 301.367188 255 L 425 255 L 425 363 L 301.367188 363 Z M 301.367188 255 " clip-rule="nonzero"/></clipPath><clipPath id="725f12dcdb"><path d="M 294.21875 248.085938 L 343 248.085938 L 343 369.515625 L 294.21875 369.515625 Z M 294.21875 248.085938 " clip-rule="nonzero"/></clipPath><clipPath id="6f8dbdbb20"><path d="M 330.039062 290.570312 C 327.476562 327.09375 315.300781 334.144531 309.535156 332.222656 C 302.484375 329.660156 292.875 304.667969 294.796875 296.335938 C 295.4375 290.570312 302.484375 284.160156 307.613281 283.519531 C 312.097656 282.878906 319.148438 287.367188 322.351562 293.132812 C 327.476562 301.464844 322.992188 325.8125 326.835938 336.707031 C 329.398438 343.757812 336.449219 346.960938 337.089844 352.085938 C 337.730469 356.574219 335.808594 362.339844 333.246094 364.902344 C 330.039062 368.105469 324.273438 369.390625 320.429688 369.390625 C 315.300781 368.75 309.535156 365.542969 305.691406 360.417969 C 299.921875 350.164062 300.5625 323.890625 301.203125 305.949219 C 302.484375 288.648438 305.050781 264.296875 312.097656 255.324219 C 315.941406 250.199219 322.992188 247.636719 327.476562 248.277344 C 331.320312 248.917969 335.808594 251.480469 338.371094 256.605469 C 345.421875 270.703125 344.136719 337.347656 335.808594 353.367188 C 331.964844 360.417969 324.273438 365.542969 319.148438 364.902344 C 314.019531 364.261719 306.332031 355.933594 305.691406 349.523438 C 303.765625 340.550781 312.097656 317.484375 319.789062 312.996094 C 324.273438 310.433594 334.527344 312.996094 337.730469 316.84375 C 340.933594 320.6875 339.652344 334.785156 335.808594 338.628906 C 333.246094 341.835938 326.195312 343.117188 321.710938 341.835938 C 317.222656 339.910156 311.457031 331.582031 310.816406 326.453125 C 310.816406 321.96875 314.019531 316.203125 317.867188 314.28125 C 322.351562 311.714844 332.605469 312.355469 336.449219 315.5625 C 340.292969 318.125 341.574219 323.890625 341.574219 329.019531 C 342.214844 335.425781 339.652344 346.960938 335.808594 353.367188 C 332.605469 358.496094 327.476562 364.261719 322.351562 364.902344 C 317.222656 364.902344 309.535156 360.417969 305.691406 353.367188 C 298 337.988281 302.484375 279.035156 309.535156 262.375 C 313.378906 254.683594 318.507812 248.277344 323.632812 248.277344 C 328.757812 247.636719 336.449219 252.761719 339.652344 260.453125 C 345.421875 274.550781 325.554688 325.8125 328.757812 341.835938 C 330.039062 348.882812 337.730469 351.445312 337.089844 355.933594 C 336.449219 360.417969 328.757812 369.390625 323.632812 369.390625 C 316.582031 369.390625 303.765625 356.574219 299.28125 347.601562 C 294.796875 338.628906 294.15625 323.890625 297.359375 316.84375 C 299.28125 312.355469 308.894531 311.714844 308.894531 308.511719 C 308.894531 304.667969 294.15625 300.183594 294.796875 296.335938 C 294.796875 292.492188 305.691406 283.519531 310.816406 284.160156 C 315.941406 284.800781 322.992188 295.695312 324.273438 301.464844 C 325.554688 305.949219 325.554688 311.074219 322.992188 314.28125 C 319.789062 318.125 308.253906 323.890625 305.050781 321.328125 C 299.921875 317.484375 301.84375 288.648438 306.972656 282.878906 C 310.175781 279.035156 317.222656 277.113281 321.070312 278.394531 C 324.914062 279.675781 330.039062 290.570312 330.039062 290.570312 " clip-rule="nonzero"/></clipPath><clipPath id="58920968e9"><path d="M 245.121094 256 L 370 256 L 370 364 L 245.121094 364 Z M 245.121094 256 " clip-rule="nonzero"/></clipPath><clipPath id="54f103f0a9"><path d="M 255.710938 174.199219 L 330 174.199219 L 330 275.945312 L 255.710938 275.945312 Z M 255.710938 174.199219 " clip-rule="nonzero"/></clipPath><clipPath id="2c052ef1d3"><path d="M 312.851562 198.742188 C 277.976562 274.558594 264.328125 274.558594 259.777344 270.769531 C 255.988281 267.734375 255.988281 260.152344 256.746094 251.8125 C 259.777344 235.132812 281.765625 188.125 294.65625 179.027344 C 301.480469 174.480469 309.820312 174.480469 314.367188 176.753906 C 318.917969 179.785156 321.949219 189.640625 321.949219 197.984375 C 321.191406 214.664062 302.996094 257.121094 290.863281 267.734375 C 284.042969 273.042969 273.425781 275.316406 268.117188 272.285156 C 262.8125 270.011719 258.261719 259.394531 259.019531 249.539062 C 260.539062 232.859375 285.558594 191.160156 299.964844 182.0625 C 307.542969 177.511719 318.160156 177.511719 323.46875 180.542969 C 328.015625 183.578125 330.289062 191.917969 329.53125 199.5 C 328.015625 216.179688 302.996094 260.152344 289.347656 268.492188 C 282.523438 273.042969 272.667969 273.042969 268.117188 270.011719 C 263.570312 267.734375 259.777344 260.914062 259.777344 255.605469 C 260.539062 250.296875 267.359375 240.441406 271.910156 238.167969 C 277.21875 236.648438 284.800781 238.167969 288.589844 241.957031 C 292.382812 245.75 296.171875 257.121094 293.898438 262.429688 C 291.621094 267.734375 280.25 273.800781 274.941406 273.042969 C 268.878906 271.527344 260.539062 260.914062 260.539062 251.8125 C 259.019531 235.890625 287.074219 191.917969 299.964844 182.0625 C 306.785156 177.511719 315.125 175.996094 319.675781 178.269531 C 324.984375 181.300781 330.289062 191.917969 329.53125 199.5 C 328.773438 210.871094 312.851562 231.34375 304.511719 238.167969 C 299.203125 242.714844 290.863281 241.199219 288.589844 245.75 C 285.558594 250.296875 293.898438 263.1875 290.863281 267.734375 C 287.074219 272.285156 273.425781 275.316406 268.117188 272.285156 C 263.570312 269.253906 260.539062 257.878906 261.296875 248.023438 C 262.8125 230.585938 282.523438 186.609375 295.414062 179.027344 C 302.238281 174.480469 313.609375 175.996094 317.402344 179.785156 C 321.949219 182.820312 322.707031 190.402344 321.949219 197.984375 C 319.675781 214.664062 297.6875 259.394531 284.800781 269.253906 C 278.734375 274.558594 271.910156 276.835938 266.601562 274.558594 C 262.054688 273.042969 256.746094 264.703125 255.988281 255.605469 C 254.472656 240.441406 269.636719 203.289062 280.25 190.402344 C 287.074219 181.300781 296.929688 174.480469 303.753906 174.480469 C 307.542969 174.480469 312.851562 179.785156 314.367188 184.335938 C 315.886719 188.125 312.851562 198.742188 312.851562 198.742188 " clip-rule="nonzero"/></clipPath><clipPath id="85cfe3e60e"><path d="M 234.628906 310 L 276.300781 310 L 276.300781 354 L 234.628906 354 Z M 234.628906 310 " clip-rule="nonzero"/></clipPath><clipPath id="fb0ce30bb1"><path d="M 275.375 333.367188 C 244.289062 353.839844 238.980469 350.046875 236.707031 346.257812 C 234.433594 341.707031 238.222656 328.816406 238.222656 328.816406 C 238.222656 328.816406 235.949219 346.257812 236.707031 346.257812 C 237.464844 346.257812 238.222656 326.542969 242.773438 324.269531 C 247.320312 321.996094 261.726562 327.300781 264.003906 331.851562 C 266.277344 335.640625 263.246094 346.257812 260.210938 350.046875 C 257.179688 353.082031 250.355469 353.839844 245.804688 353.082031 C 242.015625 351.5625 236.707031 347.015625 235.191406 343.222656 C 234.433594 338.675781 234.433594 331.851562 237.464844 328.816406 C 242.015625 325.027344 256.421875 322.753906 260.210938 326.542969 C 264.003906 329.578125 264.761719 343.222656 262.484375 347.773438 C 260.210938 351.5625 253.386719 354.597656 248.839844 353.839844 C 243.53125 352.320312 235.191406 341.707031 235.191406 334.882812 C 235.191406 328.058594 246.5625 315.171875 254.144531 312.136719 C 260.210938 309.105469 270.824219 309.863281 274.617188 312.894531 C 277.648438 316.6875 275.375 333.367188 275.375 333.367188 " clip-rule="nonzero"/></clipPath><clipPath id="c90fe7f0d0"><path d="M 237.167969 320.15625 L 275 320.15625 L 275 360 L 237.167969 360 Z M 237.167969 320.15625 " clip-rule="nonzero"/></clipPath><clipPath id="bd94dc70bb"><path d="M 274.617188 340.949219 C 247.320312 359.902344 242.015625 355.355469 239.742188 351.5625 C 237.464844 347.773438 237.464844 340.949219 239.742188 337.15625 C 241.257812 333.367188 247.320312 328.816406 251.113281 328.816406 C 256.421875 328.816406 264.761719 334.125 267.035156 338.675781 C 269.308594 342.464844 268.550781 349.289062 266.277344 352.320312 C 264.003906 356.113281 257.179688 359.902344 253.386719 359.902344 C 248.082031 359.144531 238.222656 349.289062 237.464844 343.980469 C 237.464844 337.15625 245.804688 325.027344 252.628906 321.996094 C 257.9375 318.960938 268.550781 320.476562 272.34375 323.511719 C 276.132812 327.300781 274.617188 340.949219 274.617188 340.949219 " clip-rule="nonzero"/></clipPath><clipPath id="e13d406d0f"><path d="M 267 339 L 291 339 L 291 363 L 267 363 Z M 267 339 " clip-rule="nonzero"/></clipPath><clipPath id="b4572fde0f"><path d="M 264.375 344.753906 L 288.542969 336.890625 L 295.125 357.125 L 270.957031 364.988281 Z M 264.375 344.753906 " clip-rule="nonzero"/></clipPath><clipPath id="993a252e05"><path d="M 290.644531 343.675781 C 285.460938 364.207031 274.335938 364.335938 271.417969 361.796875 C 267.660156 358.832031 266.269531 348.117188 269.234375 344.359375 C 271.570312 340.808594 285.847656 339.65625 285.847656 339.65625 " clip-rule="nonzero"/></clipPath><clipPath id="383e469b7f"><path d="M 195.144531 257 L 317 257 L 317 363 L 195.144531 363 Z M 195.144531 257 " clip-rule="nonzero"/></clipPath><clipPath id="e912067372"><path d="M 332.113281 255.675781 L 341.109375 255.675781 L 341.109375 259.121094 L 332.113281 259.121094 Z M 332.113281 255.675781 " clip-rule="nonzero"/></clipPath><clipPath id="14ff53d9c1"><path d="M 339.472656 258.988281 C 332.808594 257.789062 333.929688 257.039062 334.679688 256.742188 C 335.726562 256.292969 337.675781 255.917969 338.648438 256.214844 C 339.324219 256.441406 340.144531 257.113281 340.144531 257.414062 C 340.144531 257.640625 339.847656 257.863281 339.472656 258.011719 C 338.5 258.3125 333.855469 258.164062 333.480469 257.5625 C 333.332031 257.339844 333.632812 256.816406 334.007812 256.515625 C 334.753906 255.992188 337.601562 255.917969 338.871094 256.214844 C 339.695312 256.441406 340.746094 257.039062 340.894531 257.5625 C 340.96875 257.863281 340.746094 258.539062 340.519531 258.613281 C 340.144531 258.761719 339.472656 257.714844 338.648438 257.5625 C 337.300781 257.191406 333.707031 258.238281 333.332031 257.640625 C 333.183594 257.339844 333.632812 256.515625 334.082031 256.214844 C 334.753906 255.84375 336.550781 255.917969 337.523438 256.214844 C 338.5 256.515625 339.695312 257.265625 339.921875 257.789062 C 340.070312 258.164062 339.996094 258.835938 339.695312 258.988281 C 339.171875 259.359375 337.226562 257.9375 335.953125 257.9375 C 334.753906 257.863281 332.660156 259.136719 332.285156 258.761719 C 332.132812 258.539062 332.359375 257.714844 332.734375 257.339844 C 333.332031 256.742188 335.203125 256.441406 336.328125 256.292969 C 337.300781 256.214844 338.347656 256.140625 339.097656 256.441406 C 339.695312 256.664062 340.445312 257.339844 340.519531 257.789062 C 340.59375 258.089844 340.445312 258.460938 340.144531 258.6875 C 339.171875 259.210938 333.03125 258.761719 332.507812 258.011719 C 332.285156 257.714844 332.507812 257.265625 332.808594 256.964844 C 333.558594 256.292969 337 255.917969 338.347656 256.214844 C 339.171875 256.441406 340.070312 257.039062 340.296875 257.5625 C 340.371094 257.863281 340.296875 258.386719 339.996094 258.6875 C 339.171875 259.285156 333.929688 259.210938 333.109375 258.613281 C 332.808594 258.386719 332.734375 258.011719 332.882812 257.714844 C 333.109375 257.191406 334.378906 256.664062 335.355469 256.441406 C 336.328125 256.140625 337.824219 256.066406 338.796875 256.214844 C 339.398438 256.367188 340.296875 256.664062 340.371094 256.890625 C 340.445312 257.113281 340.144531 257.488281 339.695312 257.640625 C 338.648438 258.164062 333.40625 258.761719 332.808594 258.011719 C 332.507812 257.714844 332.808594 256.742188 333.257812 256.367188 C 334.007812 255.691406 337 255.84375 338.125 255.917969 C 338.796875 255.992188 339.398438 255.992188 339.695312 256.292969 C 340.070312 256.589844 340.519531 257.414062 340.296875 257.789062 C 339.773438 258.613281 333.332031 259.0625 332.734375 258.3125 C 332.507812 258.011719 332.808594 257.191406 333.183594 256.816406 C 333.855469 256.214844 336.175781 256.066406 337.449219 256.140625 C 338.421875 256.140625 339.847656 256.367188 339.996094 256.664062 C 340.070312 256.890625 339.921875 257.265625 339.621094 257.414062 C 339.023438 257.789062 336.550781 256.964844 335.429688 257.339844 C 334.53125 257.5625 333.78125 258.835938 333.332031 258.6875 C 333.03125 258.613281 332.808594 257.488281 332.882812 257.414062 C 333.03125 257.265625 334.15625 257.9375 334.15625 258.089844 C 334.082031 258.238281 332.957031 258.613281 332.808594 258.460938 C 332.660156 258.3125 333.183594 257.265625 333.40625 257.191406 C 333.558594 257.191406 334.15625 258.011719 334.082031 258.238281 C 334.007812 258.460938 332.882812 258.539062 332.734375 258.386719 C 332.582031 258.089844 333.78125 256.515625 334.605469 256.066406 C 335.503906 255.617188 337 255.617188 338.050781 255.84375 C 339.097656 255.992188 340.746094 256.515625 340.96875 257.113281 C 341.121094 257.488281 340.820312 258.164062 340.371094 258.386719 C 339.246094 258.988281 333.03125 257.488281 333.03125 257.113281 C 333.03125 256.816406 337.75 256.214844 338.722656 256.292969 C 339.097656 256.367188 339.324219 256.441406 339.398438 256.664062 C 339.472656 256.816406 339.398438 257.414062 339.097656 257.640625 C 338.421875 258.164062 334.53125 258.164062 334.007812 257.640625 C 333.78125 257.414062 333.707031 256.964844 333.929688 256.742188 C 334.378906 256.140625 338.050781 255.917969 339.324219 256.140625 C 340.070312 256.292969 340.894531 256.589844 341.042969 257.039062 C 341.195312 257.414062 340.96875 258.386719 340.59375 258.539062 C 340.144531 258.761719 339.246094 257.863281 338.347656 257.714844 C 337.226562 257.5625 334.980469 258.164062 334.15625 257.9375 C 333.707031 257.863281 333.332031 257.5625 333.332031 257.414062 C 333.257812 257.265625 333.632812 257.039062 333.929688 256.964844 C 334.605469 256.664062 336.328125 256.515625 337.375 256.589844 C 338.347656 256.742188 339.847656 256.964844 340.144531 257.414062 C 340.296875 257.789062 340.144531 258.613281 339.847656 258.6875 C 339.472656 258.910156 338.648438 257.863281 337.824219 257.714844 C 336.550781 257.488281 333.257812 258.761719 332.734375 258.238281 C 332.507812 258.011719 332.507812 257.265625 332.808594 256.964844 C 333.257812 256.441406 334.980469 256.367188 336.101562 256.292969 C 337.226562 256.292969 338.949219 256.515625 339.695312 256.890625 C 340.070312 257.113281 340.445312 257.414062 340.519531 257.789062 C 340.59375 258.011719 340.371094 258.613281 340.144531 258.6875 C 339.847656 258.761719 339.324219 257.9375 338.648438 257.789062 C 337.375 257.640625 334.007812 259.136719 332.957031 258.988281 C 332.582031 258.910156 332.132812 258.6875 332.132812 258.460938 C 332.058594 258.011719 333.632812 256.742188 334.53125 256.441406 C 335.277344 256.140625 336.253906 256.367188 337.074219 256.441406 C 337.898438 256.589844 339.023438 256.589844 339.398438 257.039062 C 339.773438 257.488281 339.921875 258.835938 339.695312 258.988281 C 339.398438 259.210938 338.347656 257.9375 337.523438 257.714844 C 336.777344 257.488281 335.726562 258.011719 335.054688 257.714844 C 334.53125 257.488281 333.78125 256.816406 333.855469 256.515625 C 334.082031 256.066406 336.925781 255.765625 338.125 255.992188 C 339.171875 256.214844 340.519531 256.816406 340.820312 257.414062 C 340.96875 257.789062 340.820312 258.386719 340.519531 258.613281 C 339.773438 259.0625 335.578125 257.714844 334.753906 257.191406 C 334.457031 257.039062 334.230469 256.742188 334.304688 256.664062 C 334.304688 256.515625 334.679688 256.441406 335.054688 256.441406 C 335.726562 256.292969 337.675781 255.992188 338.273438 256.441406 C 338.574219 256.664062 338.871094 257.414062 338.648438 257.714844 C 338.199219 258.386719 333.40625 258.835938 333.03125 258.3125 C 332.808594 258.089844 333.03125 257.5625 333.40625 257.265625 C 334.007812 256.742188 336.175781 256.589844 337.449219 256.742188 C 338.5 256.890625 340.144531 257.414062 340.519531 257.9375 C 340.671875 258.238281 340.59375 258.910156 340.445312 259.0625 C 340.222656 259.210938 339.472656 258.988281 339.472656 258.988281 " clip-rule="nonzero"/></clipPath></defs><g clip-path="url(#cf1223a82f)"><path fill="#ffffff" d="M 0.59375 0 L 704.40625 0 L 704.40625 590 L 0.59375 590 Z M 0.59375 0 " fill-opacity="1" fill-rule="nonzero"/><path fill="#ffffff" d="M 0.59375 0 L 704.40625 0 L 704.40625 590 L 0.59375 590 Z M 0.59375 0 " fill-opacity="1" fill-rule="nonzero"/></g><g clip-path="url(#35b94fbf20)"><g clip-path="url(#47550aa0c0)"><g clip-path="url(#832fee93d5)"><path fill="#fea800" d="M 108.710938 390.554688 L 240.605469 113.894531 L 356.902344 169.339844 L 225.007812 446 Z M 108.710938 390.554688 " fill-opacity="1" fill-rule="nonzero"/></g></g></g><g clip-path="url(#ce830ffa69)"><g clip-path="url(#1b1ef222e7)"><g clip-path="url(#c72b3aafdb)"><path fill="#ffd900" d="M 359.8125 198.523438 L 469.984375 146.660156 L 596.605469 415.632812 L 486.433594 467.5 Z M 359.8125 198.523438 " fill-opacity="1" fill-rule="nonzero"/></g></g></g><g clip-path="url(#4a2520744b)"><g clip-path="url(#8bdf280cd4)"><g clip-path="url(#535ffa75ee)"><path fill="#5e9918" d="M 245.125 402.703125 L 375.785156 128.238281 L 492.113281 183.621094 L 361.453125 458.082031 Z M 245.125 402.703125 " fill-opacity="1" fill-rule="nonzero"/></g></g></g><g clip-path="url(#57f10172e1)"><g clip-path="url(#168c8a636d)"><g clip-path="url(#a121c516c7)"><path fill="#ffffff" d="M 359.667969 316.582031 C 357.65625 313.574219 356.683594 310.816406 356.582031 308.089844 C 356.480469 305.304688 357.269531 302.476562 359.246094 299.367188 C 359.246094 299.367188 381.035156 257.898438 381.222656 257.667969 C 386.078125 251.730469 396.039062 251.320312 400.820312 257.398438 C 400.925781 257.535156 404.5 263.375 404.5 263.375 C 404.5 263.375 407.777344 257.1875 407.96875 256.953125 C 412.820312 251.015625 422.785156 250.609375 427.5625 256.6875 C 427.667969 256.820312 431.265625 262.695312 431.265625 262.695312 C 431.265625 262.695312 434.5625 256.472656 434.75 256.242188 C 439.605469 250.304688 449.570312 249.894531 454.347656 255.972656 C 454.453125 256.109375 479.066406 296.433594 479.109375 296.511719 C 482.292969 302.527344 482.40625 307.046875 479.539062 313.132812 C 479.507812 313.207031 457.167969 354.625 457.167969 354.625 C 455.101562 358.09375 451.238281 360.019531 447.230469 360.113281 C 443.277344 360.199219 439.324219 358.488281 437.050781 355.246094 C 436.984375 355.152344 433.574219 349.429688 433.574219 349.429688 L 430.382812 355.339844 C 428.316406 358.804688 424.457031 360.730469 420.445312 360.824219 C 416.496094 360.914062 412.542969 359.199219 410.265625 355.960938 C 410.199219 355.867188 406.8125 350.171875 406.8125 350.171875 L 403.640625 356.050781 C 401.574219 359.519531 397.707031 361.445312 393.703125 361.539062 C 389.746094 361.625 385.796875 359.914062 383.523438 356.671875 C 383.457031 356.578125 359.667969 316.582031 359.667969 316.582031 Z M 438.519531 340.269531 L 444.417969 350.199219 C 445.011719 350.957031 446.054688 351.203125 447.027344 351.183594 C 447.96875 351.15625 448.96875 350.894531 449.464844 350.09375 L 471.492188 309.246094 C 472.929688 306.15625 472.859375 303.839844 471.265625 300.789062 L 447.195312 261.335938 C 445.84375 259.847656 443.335938 260.183594 441.90625 261.625 L 436.6875 271.578125 L 452.191406 296.992188 C 452.238281 297.066406 452.285156 297.148438 452.328125 297.226562 C 455.511719 303.238281 455.621094 307.761719 452.757812 313.847656 C 452.722656 313.917969 452.683594 313.992188 452.644531 314.0625 Z M 411.753906 341.007812 L 417.636719 350.910156 C 418.226562 351.667969 419.269531 351.917969 420.246094 351.898438 C 421.1875 351.871094 422.183594 351.609375 422.679688 350.808594 L 444.710938 309.960938 C 446.148438 306.871094 446.074219 304.554688 444.480469 301.5 L 427.796875 274.15625 C 427.765625 274.105469 427.734375 274.058594 427.707031 274.011719 L 420.410156 262.050781 C 419.0625 260.5625 416.550781 260.898438 415.125 262.339844 L 409.921875 272.265625 L 425.449219 297.707031 C 425.496094 297.78125 425.542969 297.859375 425.582031 297.9375 C 428.769531 303.953125 428.875 308.472656 426.011719 314.558594 C 425.980469 314.632812 425.941406 314.703125 425.902344 314.777344 Z M 388.382812 263.050781 L 367.078125 303.664062 C 367.011719 303.789062 365.460938 306.554688 365.507812 307.765625 C 365.554688 309.054688 367.253906 311.859375 367.296875 311.933594 L 390.894531 351.625 C 391.484375 352.382812 392.527344 352.628906 393.5 352.609375 C 394.441406 352.585938 395.441406 352.320312 395.9375 351.519531 L 417.964844 310.671875 C 419.402344 307.582031 419.332031 305.265625 417.738281 302.214844 L 393.664062 262.761719 C 392.320312 261.273438 389.804688 261.609375 388.382812 263.050781 Z M 388.382812 263.050781 " fill-opacity="1" fill-rule="evenodd"/></g></g></g><g clip-path="url(#7a64180f40)"><g clip-path="url(#0f78731041)"><path fill="#5e9918" d="M 307.652344 195.046875 L 427.445312 195.046875 L 427.445312 423.402344 L 307.652344 423.402344 Z M 307.652344 195.046875 " fill-opacity="1" fill-rule="nonzero"/></g></g><g clip-path="url(#f7b11607cc)"><path fill="#ffffff" d="M 304.238281 317.34375 C 302.335938 314.328125 301.449219 311.589844 301.421875 308.902344 C 301.394531 306.15625 302.242188 303.390625 304.273438 300.382812 C 304.273438 300.382812 326.816406 260.121094 327.007812 259.894531 C 331.945312 254.175781 341.761719 254.035156 346.308594 260.144531 C 346.410156 260.28125 349.777344 266.128906 349.777344 266.128906 C 349.777344 266.128906 353.167969 260.121094 353.363281 259.894531 C 358.296875 254.175781 368.117188 254.035156 372.664062 260.144531 C 372.765625 260.28125 376.152344 266.160156 376.152344 266.160156 C 376.152344 266.160156 379.558594 260.121094 379.753906 259.894531 C 384.6875 254.175781 394.511719 254.035156 399.054688 260.144531 C 399.15625 260.28125 422.335938 300.636719 422.378906 300.714844 C 425.355469 306.71875 425.347656 311.175781 422.363281 317.09375 C 422.328125 317.164062 399.246094 357.363281 399.246094 357.363281 C 397.121094 360.722656 393.265625 362.515625 389.316406 362.503906 C 385.421875 362.488281 381.574219 360.695312 379.417969 357.445312 C 379.359375 357.351562 376.152344 351.625 376.152344 351.625 L 372.851562 357.363281 C 370.726562 360.722656 366.875 362.515625 362.925781 362.503906 C 359.03125 362.488281 355.183594 360.695312 353.027344 357.445312 C 352.964844 357.351562 349.777344 351.65625 349.777344 351.65625 L 346.5 357.363281 C 344.375 360.722656 340.515625 362.515625 336.570312 362.503906 C 332.675781 362.488281 328.828125 360.695312 326.675781 357.445312 C 326.613281 357.351562 304.238281 317.34375 304.238281 317.34375 Z M 381.257812 342.738281 L 386.808594 352.667969 C 387.371094 353.429688 388.394531 353.703125 389.351562 353.707031 C 390.28125 353.707031 391.269531 353.472656 391.78125 352.699219 L 414.542969 313.054688 C 416.039062 310.050781 416.03125 307.765625 414.539062 304.71875 L 391.871094 265.238281 C 390.582031 263.738281 388.101562 264.003906 386.660156 265.386719 L 381.257812 275.050781 L 395.859375 300.480469 C 395.902344 300.558594 395.945312 300.636719 395.984375 300.714844 C 398.964844 306.71875 398.953125 311.175781 395.972656 317.09375 C 395.9375 317.164062 395.898438 317.234375 395.859375 317.304688 Z M 354.882812 342.761719 L 360.417969 352.667969 C 360.980469 353.429688 362 353.703125 362.960938 353.707031 C 363.886719 353.707031 364.878906 353.472656 365.386719 352.699219 L 388.152344 313.054688 C 389.644531 310.050781 389.636719 307.765625 388.148438 304.71875 L 372.433594 277.355469 C 372.40625 277.304688 372.378906 277.257812 372.351562 277.207031 L 365.480469 265.238281 C 364.191406 263.738281 361.710938 264.003906 360.265625 265.386719 L 354.882812 275.023438 L 369.503906 300.480469 C 369.546875 300.558594 369.59375 300.636719 369.632812 300.714844 C 372.609375 306.71875 372.597656 311.175781 369.617188 317.09375 C 369.582031 317.164062 369.542969 317.234375 369.503906 317.304688 Z M 333.914062 265.386719 L 311.871094 304.820312 C 311.800781 304.9375 310.207031 307.621094 310.21875 308.8125 C 310.230469 310.085938 311.828125 312.890625 311.871094 312.964844 L 334.0625 352.667969 C 334.628906 353.429688 335.648438 353.703125 336.605469 353.707031 C 337.535156 353.707031 338.523438 353.472656 339.035156 352.699219 L 361.796875 313.054688 C 363.292969 310.050781 363.285156 307.765625 361.792969 304.71875 L 339.121094 265.238281 C 337.839844 263.738281 335.351562 264.003906 333.914062 265.386719 Z M 333.914062 265.386719 " fill-opacity="1" fill-rule="evenodd"/></g><g clip-path="url(#725f12dcdb)"><g clip-path="url(#6f8dbdbb20)"><path fill="#5e9918" d="M 269.164062 222.644531 L 367.847656 222.644531 L 367.847656 395.726562 L 269.164062 395.726562 Z M 269.164062 222.644531 " fill-opacity="1" fill-rule="nonzero"/></g></g><path stroke-linecap="butt" transform="matrix(-0.319201, 0.677283, -0.677283, -0.319201, 337.026071, 209.812228)" fill="none" stroke-linejoin="miter" d="M -0.0000325746 3.499028 L 106.311975 3.497091 " stroke="#fea800" stroke-width="7" stroke-opacity="1" stroke-miterlimit="4"/><g clip-path="url(#58920968e9)"><path fill="#ffffff" d="M 248.015625 318.332031 C 246.097656 315.292969 245.203125 312.53125 245.175781 309.820312 C 245.148438 307.054688 246.003906 304.265625 248.050781 301.234375 C 248.050781 301.234375 270.777344 260.644531 270.972656 260.417969 C 275.945312 254.652344 285.84375 254.511719 290.429688 260.671875 C 290.53125 260.808594 293.921875 266.703125 293.921875 266.703125 C 293.921875 266.703125 297.34375 260.644531 297.539062 260.417969 C 302.511719 254.652344 312.414062 254.511719 316.996094 260.671875 C 317.097656 260.808594 320.511719 266.734375 320.511719 266.734375 C 320.511719 266.734375 323.949219 260.644531 324.144531 260.417969 C 329.117188 254.652344 339.019531 254.511719 343.601562 260.671875 C 343.703125 260.808594 367.074219 301.488281 367.113281 301.570312 C 370.113281 307.621094 370.105469 312.113281 367.101562 318.078125 C 367.0625 318.148438 343.792969 358.675781 343.792969 358.675781 C 341.652344 362.0625 337.765625 363.871094 333.785156 363.859375 C 329.859375 363.839844 325.980469 362.035156 323.808594 358.761719 C 323.746094 358.667969 320.511719 352.894531 320.511719 352.894531 L 317.1875 358.675781 C 315.042969 362.0625 311.160156 363.871094 307.175781 363.859375 C 303.253906 363.839844 299.375 362.035156 297.199219 358.761719 C 297.136719 358.667969 293.921875 352.925781 293.921875 352.925781 L 290.621094 358.675781 C 288.476562 362.0625 284.589844 363.871094 280.609375 363.859375 C 276.683594 363.839844 272.804688 362.035156 270.632812 358.761719 C 270.570312 358.667969 248.015625 318.332031 248.015625 318.332031 Z M 325.660156 343.929688 L 331.257812 353.945312 C 331.824219 354.710938 332.851562 354.984375 333.820312 354.992188 C 334.753906 354.992188 335.753906 354.753906 336.265625 353.976562 L 359.214844 314.007812 C 360.722656 310.980469 360.714844 308.679688 359.210938 305.605469 L 336.359375 265.804688 C 335.0625 264.292969 332.558594 264.558594 331.105469 265.953125 L 325.660156 275.695312 L 340.378906 301.335938 C 340.421875 301.410156 340.464844 301.488281 340.507812 301.570312 C 343.507812 307.621094 343.5 312.113281 340.492188 318.078125 C 340.457031 318.148438 340.417969 318.21875 340.378906 318.292969 Z M 299.070312 343.957031 L 304.648438 353.945312 C 305.21875 354.710938 306.246094 354.984375 307.214844 354.992188 C 308.148438 354.992188 309.148438 354.753906 309.660156 353.976562 L 332.609375 314.007812 C 334.117188 310.980469 334.109375 308.679688 332.605469 305.605469 L 316.765625 278.019531 C 316.738281 277.96875 316.707031 277.921875 316.679688 277.871094 L 309.753906 265.804688 C 308.453125 264.292969 305.953125 264.558594 304.5 265.953125 L 299.070312 275.667969 L 313.8125 301.335938 C 313.855469 301.410156 313.898438 301.488281 313.941406 301.570312 C 316.941406 307.621094 316.929688 312.113281 313.925781 318.078125 C 313.890625 318.148438 313.851562 318.21875 313.8125 318.292969 Z M 277.933594 265.953125 L 255.710938 305.707031 C 255.640625 305.828125 254.03125 308.53125 254.042969 309.734375 C 254.058594 311.015625 255.667969 313.84375 255.710938 313.917969 L 278.082031 353.945312 C 278.652344 354.710938 279.679688 354.984375 280.648438 354.992188 C 281.582031 354.992188 282.578125 354.753906 283.09375 353.976562 L 306.042969 314.007812 C 307.550781 310.980469 307.542969 308.679688 306.039062 305.605469 L 283.183594 265.804688 C 281.886719 264.292969 279.382812 264.558594 277.933594 265.953125 Z M 277.933594 265.953125 " fill-opacity="1" fill-rule="evenodd"/></g><g clip-path="url(#54f103f0a9)"><g clip-path="url(#2c052ef1d3)"><path fill="#fea800" d="M 225.660156 144.152344 L 360.617188 144.152344 L 360.617188 305.46875 L 225.660156 305.46875 Z M 225.660156 144.152344 " fill-opacity="1" fill-rule="nonzero"/></g></g><g clip-path="url(#85cfe3e60e)"><g clip-path="url(#fb0ce30bb1)"><path fill="#ff7e00" d="M 204.863281 281.808594 L 306.460938 281.808594 L 306.460938 384.996094 L 204.863281 384.996094 Z M 204.863281 281.808594 " fill-opacity="1" fill-rule="nonzero"/></g></g><g clip-path="url(#c90fe7f0d0)"><g clip-path="url(#bd94dc70bb)"><path fill="#ff7e00" d="M 207.136719 291.667969 L 305.703125 291.667969 L 305.703125 391 L 207.136719 391 Z M 207.136719 291.667969 " fill-opacity="1" fill-rule="nonzero"/></g></g><g clip-path="url(#e13d406d0f)"><g clip-path="url(#b4572fde0f)"><g clip-path="url(#993a252e05)"><path fill="#5e9918" d="M 232.625 328.355469 L 306.535156 304.3125 L 329.9375 376.257812 L 256.027344 400.296875 Z M 232.625 328.355469 " fill-opacity="1" fill-rule="nonzero"/></g></g></g><g clip-path="url(#383e469b7f)"><path fill="#fcfaed" d="M 197.980469 318.152344 C 196.101562 315.171875 195.222656 312.464844 195.199219 309.8125 C 195.171875 307.097656 196.011719 304.367188 198.011719 301.394531 C 198.011719 301.394531 220.285156 261.617188 220.476562 261.398438 C 225.351562 255.746094 235.050781 255.609375 239.542969 261.644531 C 239.644531 261.777344 242.96875 267.554688 242.96875 267.554688 C 242.96875 267.554688 246.320312 261.617188 246.511719 261.398438 C 251.386719 255.746094 261.089844 255.609375 265.578125 261.644531 C 265.679688 261.777344 269.023438 267.585938 269.023438 267.585938 C 269.023438 267.585938 272.394531 261.617188 272.585938 261.398438 C 277.460938 255.746094 287.164062 255.609375 291.652344 261.644531 C 291.753906 261.777344 314.65625 301.644531 314.695312 301.722656 C 317.636719 307.65625 317.625 312.058594 314.679688 317.902344 C 314.644531 317.972656 291.839844 357.6875 291.839844 357.6875 C 289.742188 361.007812 285.933594 362.78125 282.03125 362.765625 C 278.1875 362.75 274.382812 360.980469 272.253906 357.769531 C 272.191406 357.679688 269.023438 352.019531 269.023438 352.019531 L 265.765625 357.6875 C 263.667969 361.007812 259.859375 362.78125 255.957031 362.765625 C 252.113281 362.75 248.308594 360.980469 246.179688 357.769531 C 246.121094 357.679688 242.96875 352.050781 242.96875 352.050781 L 239.730469 357.6875 C 237.632812 361.007812 233.820312 362.78125 229.921875 362.765625 C 226.074219 362.75 222.273438 360.980469 220.144531 357.769531 C 220.085938 357.679688 197.980469 318.152344 197.980469 318.152344 Z M 274.070312 343.238281 L 279.554688 353.050781 C 280.109375 353.800781 281.121094 354.070312 282.066406 354.074219 C 282.984375 354.074219 283.960938 353.84375 284.464844 353.082031 L 306.953125 313.914062 C 308.429688 310.945312 308.421875 308.691406 306.949219 305.679688 L 284.554688 266.675781 C 283.285156 265.195312 280.832031 265.457031 279.40625 266.820312 L 274.070312 276.367188 L 288.492188 301.492188 C 288.539062 301.566406 288.582031 301.644531 288.621094 301.722656 C 291.5625 307.65625 291.554688 312.058594 288.605469 317.902344 C 288.570312 317.972656 288.53125 318.042969 288.492188 318.109375 Z M 248.015625 343.265625 L 253.480469 353.050781 C 254.039062 353.800781 255.046875 354.070312 255.992188 354.074219 C 256.910156 354.074219 257.886719 353.84375 258.390625 353.082031 L 280.878906 313.914062 C 282.359375 310.945312 282.347656 308.691406 280.875 305.679688 L 265.351562 278.644531 C 265.328125 278.597656 265.296875 278.546875 265.269531 278.5 L 258.484375 266.675781 C 257.210938 265.195312 254.757812 265.457031 253.332031 266.820312 L 248.015625 276.339844 L 262.460938 301.492188 C 262.503906 301.566406 262.546875 301.644531 262.585938 301.722656 C 265.527344 307.65625 265.515625 312.058594 262.570312 317.902344 C 262.539062 317.972656 262.5 318.042969 262.460938 318.109375 Z M 227.296875 266.820312 L 205.523438 305.777344 C 205.453125 305.894531 203.875 308.546875 203.890625 309.722656 C 203.902344 310.980469 205.480469 313.753906 205.523438 313.828125 L 227.445312 353.050781 C 228.003906 353.800781 229.011719 354.070312 229.957031 354.074219 C 230.875 354.074219 231.851562 353.84375 232.355469 353.082031 L 254.84375 313.914062 C 256.324219 310.945312 256.3125 308.691406 254.839844 305.679688 L 232.445312 266.675781 C 231.175781 265.195312 228.71875 265.457031 227.296875 266.820312 Z M 227.296875 266.820312 " fill-opacity="1" fill-rule="evenodd"/></g><path stroke-linecap="butt" transform="matrix(0.339104, 0.66754, -0.66754, 0.339104, 285.971074, 268.096886)" fill="none" stroke-linejoin="miter" d="M 0.000541676 3.503078 L 28.762227 3.502028 " stroke="#fea800" stroke-width="7" stroke-opacity="1" stroke-miterlimit="4"/><path fill="#ff9900" d="M 298.820312 330.945312 C 289.929688 361.691406 257.335938 379.359375 225.996094 370.304688 C 194.617188 361.273438 176.417969 328.960938 185.292969 298.214844 C 194.148438 267.480469 226.777344 249.863281 258.171875 258.875 C 289.460938 267.933594 307.714844 300.183594 298.820312 330.945312 Z M 298.820312 330.945312 " fill-opacity="1" fill-rule="nonzero"/><path fill="#ffd900" d="M 298.511719 327.472656 C 289.476562 358.78125 256.757812 376.90625 225.414062 367.839844 C 194.039062 358.816406 175.960938 326.050781 185 294.742188 C 194.039062 263.445312 226.777344 245.375 258.171875 254.398438 C 289.460938 263.445312 307.605469 296.148438 298.511719 327.472656 Z M 298.511719 327.472656 " fill-opacity="1" fill-rule="nonzero"/><path fill="#fff600" d="M 274.792969 262.492188 C 269.769531 259.085938 264.308594 256.183594 258.171875 254.398438 C 226.777344 245.375 194.039062 263.445312 185 294.742188 C 183.296875 300.679688 182.84375 306.621094 182.96875 312.496094 C 208.011719 308.042969 253.164062 295.53125 274.792969 262.492188 Z M 274.792969 262.492188 " fill-opacity="1" fill-rule="nonzero"/><path fill="#ffa900" d="M 284.558594 323.457031 C 277.769531 347.085938 253.054688 360.785156 229.425781 353.902344 C 205.761719 347.085938 192.113281 322.394531 198.957031 298.769531 C 205.78125 275.152344 230.476562 261.558594 254.105469 268.332031 C 277.734375 275.167969 291.382812 299.800781 284.558594 323.457031 Z M 284.558594 323.457031 " fill-opacity="1" fill-rule="nonzero"/><path fill="#ff9900" d="M 241.835938 357.273438 C 237.503906 357.273438 233.175781 356.652344 228.980469 355.429688 C 217.128906 352.015625 207.320312 344.195312 201.355469 333.410156 C 195.394531 322.621094 194 310.160156 197.425781 298.328125 C 203.09375 278.703125 221.332031 265 241.777344 265 C 246.078125 265 250.375 265.605469 254.546875 266.804688 C 278.984375 273.871094 293.132812 299.484375 286.089844 323.898438 C 280.445312 343.546875 262.246094 357.273438 241.835938 357.273438 Z M 241.777344 268.183594 C 222.742188 268.183594 205.765625 280.941406 200.488281 299.210938 C 197.296875 310.230469 198.597656 321.828125 204.144531 331.867188 C 209.695312 341.910156 218.832031 349.191406 229.867188 352.371094 C 233.78125 353.511719 237.804688 354.089844 241.835938 354.089844 C 260.835938 354.089844 277.773438 341.3125 283.027344 323.015625 C 289.585938 300.285156 276.410156 276.441406 253.664062 269.859375 C 249.78125 268.746094 245.78125 268.183594 241.777344 268.183594 Z M 241.777344 268.183594 " fill-opacity="1" fill-rule="nonzero"/><path fill="#ffffff" d="M 293.398438 298.917969 C 291.316406 278.445312 270.867188 265.148438 270.660156 265.015625 L 272.542969 262.074219 C 273.445312 262.648438 294.625 276.429688 296.878906 298.5625 Z M 293.398438 298.917969 " fill-opacity="1" fill-rule="nonzero"/><path fill="#ffffa7" d="M 231.972656 365.960938 C 199.582031 360.664062 189.789062 332.050781 189.691406 331.761719 L 193.011719 330.671875 L 191.351562 331.214844 L 193.011719 330.667969 C 193.101562 330.933594 202.289062 357.570312 232.539062 362.511719 Z M 231.972656 365.960938 " fill-opacity="1" fill-rule="nonzero"/><path fill="#ffffff" d="M 267.191406 260.207031 C 266.9375 261.042969 263.527344 260.714844 259.585938 259.484375 C 255.632812 258.277344 252.65625 256.617188 252.910156 255.800781 C 253.164062 254.96875 256.574219 255.292969 260.511719 256.507812 C 264.433594 257.734375 267.425781 259.382812 267.191406 260.207031 Z M 267.191406 260.207031 " fill-opacity="1" fill-rule="nonzero"/><path fill="#ff8700" d="M 246.050781 338.535156 C 243.144531 335.351562 240.296875 332.160156 237.410156 328.980469 C 235.324219 326.664062 233.238281 324.363281 231.148438 322.058594 C 230.988281 321.878906 230.839844 321.699219 230.679688 321.507812 C 230.570312 321.363281 230.640625 321.207031 230.804688 321.191406 C 230.988281 321.164062 231.132812 321.144531 231.292969 321.136719 C 233.78125 320.902344 236.25 320.511719 238.609375 319.730469 C 238.753906 319.585938 239.042969 319.722656 239.1875 319.558594 C 239.660156 319.386719 240.113281 319.214844 240.566406 319.03125 C 241.984375 318.417969 243.398438 317.761719 244.671875 316.910156 C 248.445312 314.445312 250.855469 311.214844 251.765625 307.144531 C 251.964844 306.203125 252.109375 306.339844 252.871094 306.304688 C 253.035156 306.304688 253.199219 306.304688 253.34375 306.304688 C 255.195312 306.304688 257.0625 306.292969 258.898438 306.320312 C 259.476562 306.320312 259.839844 306.175781 260.167969 305.742188 C 261.199219 304.261719 262.273438 302.832031 263.359375 301.386719 C 263.433594 301.289062 263.503906 301.1875 263.523438 301.082031 C 263.578125 300.972656 263.503906 300.84375 263.359375 300.835938 C 263.179688 300.808594 262.980469 300.808594 262.78125 300.808594 C 261.253906 300.800781 259.730469 300.800781 258.207031 300.800781 C 256.210938 300.800781 254.175781 300.808594 252.179688 300.800781 C 251.671875 300.800781 251.636719 300.761719 251.527344 300.320312 C 251.257812 298.839844 250.691406 297.4375 249.75 296.164062 C 249.550781 295.886719 249.332031 295.585938 249.113281 295.304688 C 249.023438 295.214844 248.949219 295.113281 248.984375 295.007812 C 249.058594 294.851562 249.1875 294.859375 249.3125 294.859375 C 249.53125 294.851562 249.785156 294.851562 249.984375 294.851562 C 252.835938 294.851562 255.699219 294.851562 258.550781 294.851562 C 258.804688 294.851562 259.078125 294.835938 259.328125 294.835938 C 259.582031 294.851562 259.765625 294.753906 259.910156 294.570312 C 260.054688 294.417969 260.164062 294.246094 260.292969 294.074219 C 261.253906 292.738281 262.214844 291.425781 263.179688 290.082031 C 263.320312 289.894531 263.613281 289.71875 263.503906 289.503906 C 263.359375 289.195312 262.996094 289.332031 262.726562 289.332031 C 257.589844 289.332031 252.46875 289.332031 247.351562 289.332031 C 242.90625 289.3125 238.460938 289.3125 234.015625 289.3125 C 230.332031 289.3125 226.628906 289.332031 222.925781 289.304688 C 222.382812 289.304688 222.109375 289.476562 221.835938 289.855469 C 220.859375 291.246094 219.804688 292.605469 218.824219 293.980469 C 218.714844 294.144531 218.570312 294.316406 218.480469 294.5 C 218.410156 294.636719 218.515625 294.796875 218.679688 294.804688 C 218.824219 294.824219 218.933594 294.824219 219.082031 294.824219 C 220.605469 294.832031 222.128906 294.824219 223.632812 294.832031 C 226.15625 294.859375 228.664062 294.925781 231.167969 295.078125 C 233.5625 295.269531 236.265625 295.03125 238.441406 296.164062 C 240.203125 297.089844 240.710938 298.714844 241.601562 300.226562 C 241.675781 300.363281 241.800781 300.519531 241.726562 300.726562 C 241.417969 300.871094 241.039062 300.796875 240.710938 300.796875 C 234.832031 300.808594 228.953125 300.808594 223.089844 300.78125 C 222.527344 300.78125 222.148438 300.917969 221.820312 301.378906 C 220.785156 302.828125 219.714844 304.273438 218.644531 305.722656 C 218.570312 305.8125 218.5 305.910156 218.464844 306.019531 C 218.410156 306.140625 218.464844 306.257812 218.609375 306.285156 C 218.828125 306.300781 219.042969 306.320312 219.28125 306.320312 C 223.273438 306.320312 227.265625 306.320312 231.257812 306.320312 C 234.796875 306.320312 238.390625 306.320312 241.945312 306.320312 C 242.671875 306.320312 242.746094 306.375 242.707031 307.019531 C 242.707031 307.21875 242.691406 307.410156 242.636719 307.609375 C 242.308594 309.519531 241.4375 311.179688 239.949219 312.59375 C 238.316406 314.226562 236.25 315.261719 233.925781 315.941406 C 231.601562 316.601562 229.207031 316.847656 226.738281 316.863281 C 224.996094 316.875 223.21875 316.875 221.476562 316.875 C 221.257812 316.875 221.039062 316.863281 220.804688 316.875 C 220.460938 316.902344 220.367188 316.972656 220.351562 317.320312 C 220.351562 318.769531 220.351562 320.246094 220.351562 321.707031 C 220.351562 322.023438 220.460938 322.269531 220.675781 322.488281 C 220.859375 322.667969 221.003906 322.859375 221.167969 323.039062 C 223.273438 325.378906 225.359375 327.710938 227.464844 330.058594 C 229.535156 332.359375 231.601562 334.691406 233.691406 337.003906 C 234.871094 338.335938 236.066406 339.660156 237.265625 340.972656 C 238.714844 342.605469 240.1875 344.238281 241.640625 345.851562 L 252.652344 345.851562 C 250.457031 343.421875 248.226562 340.972656 246.050781 338.535156 Z M 246.050781 338.535156 " fill-opacity="1" fill-rule="nonzero"/><path fill="#ffff90" d="M 246.808594 335.558594 C 243.90625 332.378906 241.058594 329.1875 238.171875 326.003906 C 236.085938 323.691406 234 321.390625 231.910156 319.085938 C 231.746094 318.90625 231.601562 318.722656 231.441406 318.535156 C 231.332031 318.386719 231.402344 318.234375 231.566406 318.214844 C 231.746094 318.1875 231.894531 318.171875 232.054688 318.160156 C 234.542969 317.925781 237.011719 317.535156 239.367188 316.757812 C 239.511719 316.609375 239.804688 316.746094 239.949219 316.585938 C 240.421875 316.414062 240.875 316.242188 241.328125 316.058594 C 242.746094 315.445312 244.160156 314.789062 245.429688 313.9375 C 249.207031 311.472656 251.617188 308.242188 252.527344 304.171875 C 252.726562 303.230469 252.871094 303.367188 253.632812 303.328125 C 253.796875 303.328125 253.960938 303.328125 254.105469 303.328125 C 255.957031 303.328125 257.824219 303.320312 259.65625 303.347656 C 260.238281 303.347656 260.601562 303.203125 260.925781 302.765625 C 261.960938 301.289062 263.035156 299.859375 264.121094 298.414062 C 264.195312 298.316406 264.265625 298.214844 264.285156 298.105469 C 264.339844 297.996094 264.265625 297.871094 264.121094 297.863281 C 263.941406 297.835938 263.738281 297.835938 263.539062 297.835938 C 262.015625 297.824219 260.492188 297.824219 258.96875 297.824219 C 256.972656 297.824219 254.941406 297.835938 252.941406 297.824219 C 252.433594 297.824219 252.398438 297.789062 252.289062 297.34375 C 252.015625 295.867188 251.453125 294.460938 250.511719 293.191406 C 250.3125 292.910156 250.09375 292.613281 249.875 292.332031 C 249.785156 292.242188 249.710938 292.140625 249.75 292.03125 C 249.820312 291.878906 249.949219 291.886719 250.074219 291.886719 C 250.292969 291.878906 250.546875 291.878906 250.746094 291.878906 C 253.59375 291.878906 256.460938 291.878906 259.308594 291.878906 C 259.566406 291.878906 259.835938 291.859375 260.089844 291.859375 C 260.34375 291.878906 260.527344 291.777344 260.671875 291.597656 C 260.816406 291.441406 260.925781 291.269531 261.054688 291.097656 C 262.015625 289.765625 262.976562 288.453125 263.9375 287.109375 C 264.082031 286.917969 264.375 286.746094 264.265625 286.527344 C 264.121094 286.21875 263.757812 286.355469 263.484375 286.355469 C 258.347656 286.355469 253.234375 286.355469 248.113281 286.355469 C 243.667969 286.339844 239.222656 286.339844 234.777344 286.339844 C 231.089844 286.339844 227.386719 286.355469 223.6875 286.328125 C 223.144531 286.328125 222.871094 286.5 222.597656 286.882812 C 221.617188 288.269531 220.566406 289.628906 219.585938 291.007812 C 219.476562 291.171875 219.332031 291.34375 219.242188 291.523438 C 219.167969 291.660156 219.277344 291.824219 219.441406 291.832031 C 219.585938 291.851562 219.695312 291.851562 219.839844 291.851562 C 221.367188 291.859375 222.890625 291.851562 224.394531 291.859375 C 226.917969 291.886719 229.421875 291.949219 231.925781 292.105469 C 234.320312 292.292969 237.027344 292.058594 239.203125 293.191406 C 240.964844 294.117188 241.472656 295.738281 242.363281 297.253906 C 242.433594 297.390625 242.5625 297.542969 242.488281 297.753906 C 242.179688 297.898438 241.800781 297.824219 241.472656 297.824219 C 235.59375 297.835938 229.714844 297.835938 223.851562 297.808594 C 223.289062 297.808594 222.90625 297.945312 222.582031 298.40625 C 221.546875 299.855469 220.476562 301.300781 219.40625 302.75 C 219.332031 302.839844 219.261719 302.941406 219.222656 303.046875 C 219.167969 303.164062 219.222656 303.285156 219.367188 303.3125 C 219.589844 303.328125 219.804688 303.347656 220.039062 303.347656 C 224.03125 303.347656 228.023438 303.347656 232.015625 303.347656 C 235.554688 303.347656 239.152344 303.347656 242.707031 303.347656 C 243.433594 303.347656 243.503906 303.402344 243.46875 304.046875 C 243.46875 304.246094 243.453125 304.4375 243.398438 304.636719 C 243.070312 306.550781 242.199219 308.207031 240.710938 309.621094 C 239.078125 311.253906 237.007812 312.289062 234.6875 312.96875 C 232.363281 313.628906 229.96875 313.875 227.5 313.894531 C 225.757812 313.902344 223.976562 313.902344 222.234375 313.902344 C 222.019531 313.902344 221.800781 313.894531 221.566406 313.902344 C 221.21875 313.929688 221.128906 314 221.109375 314.347656 C 221.109375 315.796875 221.109375 317.273438 221.109375 318.734375 C 221.109375 319.050781 221.21875 319.296875 221.4375 319.511719 C 221.621094 319.695312 221.765625 319.882812 221.925781 320.066406 C 224.03125 322.40625 226.121094 324.738281 228.226562 327.082031 C 230.292969 329.386719 232.363281 331.714844 234.449219 334.027344 C 235.628906 335.363281 236.828125 336.683594 238.027344 338 C 239.476562 339.632812 240.945312 341.265625 242.398438 342.878906 L 253.414062 342.878906 C 251.222656 340.449219 248.988281 338 246.808594 335.558594 Z M 246.808594 335.558594 " fill-opacity="1" fill-rule="nonzero"/><path stroke-linecap="butt" transform="matrix(0.524646, 0.534179, -0.534179, 0.524646, 399.083934, 253.044953)" fill="none" stroke-linejoin="miter" d="M 0.00202492 3.500983 L 15.780874 3.502799 " stroke="#5e9918" stroke-width="7" stroke-opacity="1" stroke-miterlimit="4"/><path stroke-linecap="butt" transform="matrix(0.377727, -0.64647, 0.64647, 0.377727, 403.437411, 265.854315)" fill="none" stroke-linejoin="miter" d="M 0.000101473 3.498645 L 10.816361 3.499178 " stroke="#ffffff" stroke-width="7" stroke-opacity="1" stroke-miterlimit="4"/><g clip-path="url(#e912067372)"><g clip-path="url(#14ff53d9c1)"><path fill="#ffffff" d="M 329.140625 252.847656 L 344.117188 252.847656 L 344.117188 262.132812 L 329.140625 262.132812 Z M 329.140625 252.847656 " fill-opacity="1" fill-rule="nonzero"/></g></g></svg>