<svg xmlns="http://www.w3.org/2000/svg" xmlns:xlink="http://www.w3.org/1999/xlink" width="940" zoomAndPan="magnify" viewBox="0 0 705 591.000005" height="788" preserveAspectRatio="xMidYMid meet" version="1.0"><defs><clipPath id="becc880550"><path d="M 9 44 L 357 44 L 357 515 L 9 515 Z M 9 44 " clip-rule="nonzero"/></clipPath><clipPath id="9a73b716e5"><path d="M 0.59375 441.972656 L 194.785156 34.648438 L 366.007812 116.277344 L 171.816406 523.605469 Z M 0.59375 441.972656 " clip-rule="nonzero"/></clipPath><clipPath id="581be3613e"><path d="M 12.515625 416.964844 L 182.734375 59.925781 C 185.894531 53.292969 191.5625 48.1875 198.488281 45.734375 C 205.414062 43.28125 213.027344 43.679688 219.660156 46.839844 L 340.871094 104.625 C 347.503906 107.789062 352.609375 113.457031 355.0625 120.382812 C 357.515625 127.304688 357.117188 134.921875 353.957031 141.554688 L 183.738281 498.597656 C 180.574219 505.230469 174.910156 510.332031 167.984375 512.789062 C 161.058594 515.242188 153.441406 514.84375 146.808594 511.683594 L 25.597656 453.894531 C 18.964844 450.734375 13.863281 445.066406 11.410156 438.140625 C 8.953125 431.214844 9.351562 423.597656 12.515625 416.964844 Z M 12.515625 416.964844 " clip-rule="nonzero"/></clipPath><clipPath id="0c6c8fd86c"><path d="M 400 115 L 697 115 L 697 530 L 400 530 Z M 400 115 " clip-rule="nonzero"/></clipPath><clipPath id="abc24d5b80"><path d="M 375.996094 168.066406 L 539.382812 91.148438 L 721.457031 477.914062 L 558.070312 554.828125 Z M 375.996094 168.066406 " clip-rule="nonzero"/></clipPath><clipPath id="3448076331"><path d="M 443.738281 136.175781 L 471.640625 123.039062 C 489.605469 114.582031 510.195312 113.609375 528.882812 120.332031 C 547.566406 127.054688 562.8125 140.925781 571.273438 158.890625 L 689.300781 409.605469 C 697.757812 427.570312 698.730469 448.160156 692.007812 466.84375 C 685.285156 485.53125 671.414062 500.777344 653.449219 509.238281 L 625.546875 522.371094 C 607.582031 530.828125 586.992188 531.804688 568.304688 525.082031 C 549.621094 518.355469 534.371094 504.488281 525.914062 486.519531 L 407.886719 235.808594 C 399.429688 217.839844 398.453125 197.25 405.179688 178.566406 C 411.902344 159.882812 425.773438 144.632812 443.738281 136.175781 Z M 443.738281 136.175781 " clip-rule="nonzero"/></clipPath><clipPath id="5491803bdd"><path d="M 210 65 L 556 65 L 556 533 L 210 533 Z M 210 65 " clip-rule="nonzero"/></clipPath><clipPath id="3d322846cc"><path d="M 201.433594 459.851562 L 393.804688 55.761719 L 565.074219 137.296875 L 372.703125 541.386719 Z M 201.433594 459.851562 " clip-rule="nonzero"/></clipPath><clipPath id="5135744b2e"><path d="M 213.339844 434.839844 L 381.820312 80.933594 C 384.980469 74.300781 390.644531 69.191406 397.566406 66.734375 C 404.492188 64.277344 412.109375 64.671875 418.742188 67.828125 L 539.984375 125.546875 C 546.617188 128.707031 551.726562 134.371094 554.183594 141.292969 C 556.640625 148.21875 556.25 155.835938 553.089844 162.46875 L 384.609375 516.375 C 381.453125 523.007812 375.789062 528.113281 368.863281 530.574219 C 361.9375 533.03125 354.324219 532.636719 347.6875 529.480469 L 226.445312 471.757812 C 219.8125 468.601562 214.703125 462.9375 212.246094 456.011719 C 209.789062 449.089844 210.183594 441.472656 213.339844 434.839844 Z M 213.339844 434.839844 " clip-rule="nonzero"/></clipPath><clipPath id="e051f345d3"><path d="M 334.835938 198.214844 L 433 198.214844 L 433 444.859375 L 334.835938 444.859375 Z M 334.835938 198.214844 " clip-rule="nonzero"/></clipPath><clipPath id="d75bf28829"><path d="M 425.21875 232.261719 C 419.636719 410.863281 408.476562 418.679688 401.777344 418.679688 C 395.078125 418.679688 388.382812 413.097656 383.917969 403.050781 C 371.636719 376.261719 366.054688 252.355469 377.21875 222.214844 C 381.683594 209.933594 389.5 199.886719 396.195312 198.773438 C 404.011719 198.773438 416.289062 204.355469 421.871094 215.515625 C 436.382812 246.773438 420.753906 409.75 405.125 434.308594 C 400.660156 442.121094 395.078125 444.351562 388.382812 444.351562 C 382.800781 444.351562 373.871094 441.003906 368.289062 432.074219 C 354.894531 413.097656 339.265625 332.726562 343.730469 307.050781 C 345.964844 294.773438 351.542969 284.726562 358.242188 282.492188 C 364.941406 280.261719 376.101562 282.492188 381.683594 290.308594 C 392.847656 304.820312 395.078125 385.191406 381.683594 401.933594 C 374.988281 410.863281 357.125 414.214844 349.3125 409.75 C 340.382812 404.167969 340.382812 379.609375 338.148438 363.980469 C 337.035156 346.121094 334.800781 320.445312 339.265625 307.050781 C 342.613281 298.121094 347.078125 290.308594 354.894531 286.957031 C 362.707031 284.726562 377.21875 286.957031 385.03125 293.65625 C 395.078125 300.355469 406.242188 324.910156 402.894531 333.84375 C 400.660156 341.65625 387.265625 348.351562 380.566406 348.351562 C 373.871094 348.351562 364.941406 342.773438 361.589844 337.191406 C 359.359375 330.492188 363.824219 311.515625 368.289062 305.933594 C 371.636719 302.585938 377.21875 301.46875 382.800781 301.46875 C 388.382812 302.585938 398.429688 307.050781 400.660156 312.632812 C 405.125 319.332031 402.894531 334.957031 398.429688 340.539062 C 395.078125 345.003906 385.03125 348.351562 378.335938 348.351562 C 372.753906 347.238281 363.824219 341.65625 360.476562 334.957031 C 358.242188 328.261719 361.589844 312.632812 366.054688 308.167969 C 370.523438 302.585938 380.566406 301.46875 387.265625 302.585938 C 393.964844 303.703125 400.660156 311.515625 402.894531 317.097656 C 405.125 322.679688 400.660156 338.308594 400.660156 338.308594 C 400.660156 338.308594 404.011719 318.214844 404.011719 318.214844 C 402.894531 317.097656 401.777344 338.308594 396.195312 342.773438 C 390.613281 347.238281 376.101562 348.351562 370.523438 345.003906 C 363.824219 341.65625 354.894531 328.261719 357.125 322.679688 C 359.359375 315.980469 378.335938 307.050781 383.917969 310.398438 C 393.964844 317.097656 391.730469 386.308594 381.683594 401.933594 C 377.21875 409.75 366.054688 414.214844 359.359375 413.097656 C 352.660156 413.097656 344.847656 406.398438 340.382812 396.351562 C 332.566406 378.492188 332.566406 313.75 343.730469 297.003906 C 350.429688 286.957031 366.054688 281.375 373.871094 283.609375 C 379.453125 284.726562 382.800781 290.308594 386.148438 299.238281 C 396.195312 321.5625 416.289062 416.445312 405.125 434.308594 C 400.660156 442.121094 390.613281 445.46875 383.917969 444.351562 C 377.21875 443.238281 370.523438 437.65625 367.171875 427.609375 C 356.011719 397.46875 361.589844 254.585938 377.21875 222.214844 C 382.800781 208.820312 393.964844 198.773438 401.777344 198.773438 C 409.589844 199.886719 417.40625 208.820312 421.871094 221.097656 C 434.148438 251.238281 437.5 369.5625 424.101562 398.585938 C 419.636719 410.863281 408.476562 419.796875 401.777344 418.679688 C 395.078125 418.679688 387.265625 409.75 383.917969 398.585938 C 372.753906 369.5625 369.40625 253.46875 382.800781 227.796875 C 388.382812 216.632812 399.542969 209.933594 406.242188 211.050781 C 412.941406 212.167969 425.21875 232.261719 425.21875 232.261719 " clip-rule="nonzero"/></clipPath><clipPath id="6a7ff98414"><path d="M 284.25 243 L 466 243 L 466 401 L 284.25 401 Z M 284.25 243 " clip-rule="nonzero"/></clipPath><clipPath id="aff7d4ca0e"><path d="M 274 232.210938 L 345.800781 232.210938 L 345.800781 410.988281 L 274 410.988281 Z M 274 232.210938 " clip-rule="nonzero"/></clipPath><clipPath id="9467165caa"><path d="M 326.460938 294.761719 C 322.6875 348.539062 304.761719 358.914062 296.269531 356.085938 C 285.890625 352.3125 271.742188 315.515625 274.570312 303.25 C 275.515625 294.761719 285.890625 285.324219 293.441406 284.382812 C 300.042969 283.4375 310.421875 290.042969 315.140625 298.535156 C 322.6875 310.800781 316.082031 346.652344 321.742188 362.691406 C 325.519531 373.066406 335.894531 377.785156 336.839844 385.332031 C 337.78125 391.9375 334.953125 400.429688 331.179688 404.203125 C 326.460938 408.917969 317.96875 410.804688 312.308594 410.804688 C 304.761719 409.863281 296.269531 405.144531 290.609375 397.597656 C 282.117188 382.503906 283.0625 343.820312 284.003906 317.402344 C 285.890625 291.929688 289.667969 256.078125 300.042969 242.871094 C 305.703125 235.324219 316.082031 231.550781 322.6875 232.492188 C 328.347656 233.4375 334.953125 237.210938 338.726562 244.757812 C 349.105469 265.511719 347.21875 363.632812 334.953125 387.21875 C 329.292969 397.597656 317.96875 405.144531 310.421875 404.203125 C 302.875 403.257812 291.554688 390.992188 290.609375 381.558594 C 287.78125 368.351562 300.042969 334.386719 311.367188 327.78125 C 317.96875 324.007812 333.066406 327.78125 337.78125 333.441406 C 342.5 339.101562 340.613281 359.859375 334.953125 365.519531 C 331.179688 370.238281 320.800781 372.125 314.195312 370.238281 C 307.59375 367.40625 299.101562 355.140625 298.15625 347.59375 C 298.15625 340.988281 302.875 332.5 308.535156 329.667969 C 315.140625 325.894531 330.234375 326.839844 335.894531 331.554688 C 341.554688 335.328125 343.441406 343.820312 343.441406 351.367188 C 344.386719 360.800781 340.613281 377.785156 334.953125 387.21875 C 330.234375 394.765625 322.6875 403.257812 315.140625 404.203125 C 307.59375 404.203125 296.269531 397.597656 290.609375 387.21875 C 279.289062 364.578125 285.890625 277.777344 296.269531 253.25 C 301.929688 241.925781 309.480469 232.492188 317.027344 232.492188 C 324.574219 231.550781 335.894531 239.097656 340.613281 250.417969 C 349.105469 271.175781 319.855469 346.652344 324.574219 370.238281 C 326.460938 380.617188 337.78125 384.390625 336.839844 390.992188 C 335.894531 397.597656 324.574219 410.804688 317.027344 410.804688 C 306.648438 410.804688 287.78125 391.9375 281.175781 378.726562 C 274.570312 365.519531 273.628906 343.820312 278.34375 333.441406 C 281.175781 326.839844 295.328125 325.894531 295.328125 321.175781 C 295.328125 315.515625 273.628906 308.914062 274.570312 303.25 C 274.570312 297.589844 290.609375 284.382812 298.15625 285.324219 C 305.703125 286.269531 316.082031 302.308594 317.96875 310.800781 C 319.855469 317.402344 319.855469 324.953125 316.082031 329.667969 C 311.367188 335.328125 294.382812 343.820312 289.667969 340.046875 C 282.117188 334.386719 284.949219 291.929688 292.496094 283.4375 C 297.214844 277.777344 307.59375 274.949219 313.253906 276.835938 C 318.914062 278.722656 326.460938 294.761719 326.460938 294.761719 " clip-rule="nonzero"/></clipPath><clipPath id="0c56392c1c"><path d="M 201.433594 243 L 385 243 L 385 403 L 201.433594 403 Z M 201.433594 243 " clip-rule="nonzero"/></clipPath><clipPath id="f1fc406e7e"><path d="M 217.023438 123.429688 L 326 123.429688 L 326 273 L 217.023438 273 Z M 217.023438 123.429688 " clip-rule="nonzero"/></clipPath><clipPath id="22781489a8"><path d="M 301.15625 159.5625 C 249.804688 271.1875 229.714844 271.1875 223.015625 265.609375 C 217.433594 261.144531 217.433594 249.980469 218.550781 237.699219 C 223.015625 213.144531 255.386719 143.933594 274.363281 130.539062 C 284.410156 123.839844 296.691406 123.839844 303.386719 127.191406 C 310.085938 131.65625 314.550781 146.167969 314.550781 158.445312 C 313.433594 183.003906 286.644531 245.515625 268.78125 261.144531 C 258.734375 268.957031 243.109375 272.304688 235.292969 267.839844 C 227.480469 264.492188 220.78125 248.863281 221.898438 234.351562 C 224.132812 209.792969 260.96875 148.398438 282.179688 135.003906 C 293.339844 128.304688 308.96875 128.304688 316.78125 132.769531 C 323.480469 137.234375 326.828125 149.515625 325.710938 160.679688 C 323.480469 185.234375 286.644531 249.980469 266.550781 262.257812 C 256.503906 268.957031 241.992188 268.957031 235.292969 264.492188 C 228.597656 261.144531 223.015625 251.097656 223.015625 243.28125 C 224.132812 235.46875 234.179688 220.957031 240.875 217.609375 C 248.691406 215.375 259.851562 217.609375 265.433594 223.1875 C 271.015625 228.769531 276.597656 245.515625 273.246094 253.328125 C 269.898438 261.144531 253.15625 270.074219 245.339844 268.957031 C 236.410156 266.722656 224.132812 251.097656 224.132812 237.699219 C 221.898438 214.257812 263.203125 149.515625 282.179688 135.003906 C 292.222656 128.304688 304.503906 126.074219 311.203125 129.421875 C 319.015625 133.886719 326.828125 149.515625 325.710938 160.679688 C 324.597656 177.421875 301.15625 207.5625 288.875 217.609375 C 281.0625 224.304688 268.78125 222.074219 265.433594 228.769531 C 260.96875 235.46875 273.246094 254.445312 268.78125 261.144531 C 263.203125 267.839844 243.109375 272.304688 235.292969 267.839844 C 228.597656 263.375 224.132812 246.632812 225.246094 232.121094 C 227.480469 206.445312 256.503906 141.703125 275.480469 130.539062 C 285.527344 123.839844 302.269531 126.074219 307.851562 131.65625 C 314.550781 136.121094 315.667969 147.28125 314.550781 158.445312 C 311.203125 183.003906 278.828125 248.863281 259.851562 263.375 C 250.921875 271.1875 240.875 274.539062 233.0625 271.1875 C 226.363281 268.957031 218.550781 256.675781 217.433594 243.28125 C 215.203125 220.957031 237.527344 166.257812 253.15625 147.28125 C 263.203125 133.886719 277.714844 123.839844 287.757812 123.839844 C 293.339844 123.839844 301.15625 131.65625 303.386719 138.351562 C 305.621094 143.933594 301.15625 159.5625 301.15625 159.5625 " clip-rule="nonzero"/></clipPath><clipPath id="a0ac298574"><path d="M 186 323.351562 L 247.339844 323.351562 L 247.339844 388.207031 L 186 388.207031 Z M 186 323.351562 " clip-rule="nonzero"/></clipPath><clipPath id="936e3554f2"><path d="M 245.976562 357.769531 C 200.210938 387.910156 192.394531 382.328125 189.046875 376.746094 C 185.699219 370.050781 191.28125 351.074219 191.28125 351.074219 C 191.28125 351.074219 187.929688 376.746094 189.046875 376.746094 C 190.164062 376.746094 191.28125 347.726562 197.976562 344.375 C 204.675781 341.027344 225.882812 348.839844 229.234375 355.539062 C 232.582031 361.121094 228.117188 376.746094 223.652344 382.328125 C 219.1875 386.792969 209.140625 387.910156 202.441406 386.792969 C 196.863281 384.5625 189.046875 377.863281 186.816406 372.28125 C 185.699219 365.585938 185.699219 355.539062 190.164062 351.074219 C 196.863281 345.492188 218.070312 342.144531 223.652344 347.726562 C 229.234375 352.191406 230.351562 372.28125 227 378.980469 C 223.652344 384.5625 213.605469 389.027344 206.90625 387.910156 C 199.09375 385.679688 186.816406 370.050781 186.816406 360.003906 C 186.816406 349.957031 203.558594 330.980469 214.722656 326.515625 C 223.652344 322.050781 239.28125 323.167969 244.859375 327.632812 C 249.328125 333.214844 245.976562 357.769531 245.976562 357.769531 " clip-rule="nonzero"/></clipPath><clipPath id="d7506c4454"><path d="M 190 338.324219 L 245.847656 338.324219 L 245.847656 397 L 190 397 Z M 190 338.324219 " clip-rule="nonzero"/></clipPath><clipPath id="be1b9419bd"><path d="M 244.859375 368.933594 C 204.675781 396.839844 196.863281 390.144531 193.511719 384.5625 C 190.164062 378.980469 190.164062 368.933594 193.511719 363.351562 C 195.746094 357.769531 204.675781 351.074219 210.257812 351.074219 C 218.070312 351.074219 230.351562 358.886719 233.699219 365.585938 C 237.046875 371.167969 235.929688 381.214844 232.582031 385.679688 C 229.234375 391.257812 219.1875 396.839844 213.605469 396.839844 C 205.792969 395.726562 191.28125 381.214844 190.164062 373.398438 C 190.164062 363.351562 202.441406 345.492188 212.488281 341.027344 C 220.304688 336.5625 235.929688 338.792969 241.511719 343.257812 C 247.09375 348.839844 244.859375 368.933594 244.859375 368.933594 " clip-rule="nonzero"/></clipPath><clipPath id="0eb13860c1"><path d="M 234 367 L 269 367 L 269 402 L 234 402 Z M 234 367 " clip-rule="nonzero"/></clipPath><clipPath id="8549e67893"><path d="M 229.78125 374.535156 L 265.363281 362.960938 L 275.054688 392.753906 L 239.472656 404.328125 Z M 229.78125 374.535156 " clip-rule="nonzero"/></clipPath><clipPath id="58a2d8f020"><path d="M 268.460938 372.953125 C 260.824219 403.175781 244.449219 403.367188 240.148438 399.628906 C 234.621094 395.261719 232.570312 379.488281 236.9375 373.957031 C 240.375 368.730469 261.398438 367.03125 261.398438 367.03125 " clip-rule="nonzero"/></clipPath><clipPath id="03ce985065"><path d="M 118.804688 240 L 307 240 L 307 404 L 118.804688 404 Z M 118.804688 240 " clip-rule="nonzero"/></clipPath><clipPath id="1ec8ac35a3"><path d="M 329.511719 243.386719 L 342.753906 243.386719 L 342.753906 248.460938 L 329.511719 248.460938 Z M 329.511719 243.386719 " clip-rule="nonzero"/></clipPath><clipPath id="ff982b9b39"><path d="M 340.347656 248.261719 C 330.535156 246.496094 332.191406 245.394531 333.292969 244.953125 C 334.835938 244.292969 337.703125 243.742188 339.132812 244.183594 C 340.125 244.511719 341.339844 245.503906 341.339844 245.945312 C 341.339844 246.277344 340.898438 246.609375 340.347656 246.828125 C 338.914062 247.269531 332.078125 247.050781 331.527344 246.167969 C 331.308594 245.835938 331.75 245.066406 332.300781 244.625 C 333.402344 243.851562 337.589844 243.742188 339.464844 244.183594 C 340.675781 244.511719 342.222656 245.394531 342.441406 246.167969 C 342.550781 246.609375 342.222656 247.601562 341.890625 247.710938 C 341.339844 247.929688 340.347656 246.386719 339.132812 246.167969 C 337.148438 245.617188 331.859375 247.160156 331.308594 246.277344 C 331.085938 245.835938 331.75 244.625 332.410156 244.183594 C 333.402344 243.632812 336.046875 243.742188 337.480469 244.183594 C 338.914062 244.625 340.675781 245.726562 341.007812 246.496094 C 341.230469 247.050781 341.117188 248.042969 340.675781 248.261719 C 339.90625 248.8125 337.039062 246.71875 335.164062 246.71875 C 333.402344 246.609375 330.316406 248.480469 329.765625 247.929688 C 329.542969 247.601562 329.875 246.386719 330.425781 245.835938 C 331.308594 244.953125 334.0625 244.511719 335.71875 244.292969 C 337.148438 244.183594 338.695312 244.074219 339.796875 244.511719 C 340.675781 244.84375 341.78125 245.835938 341.890625 246.496094 C 342 246.9375 341.78125 247.488281 341.339844 247.820312 C 339.90625 248.59375 330.867188 247.929688 330.09375 246.828125 C 329.765625 246.386719 330.09375 245.726562 330.535156 245.285156 C 331.636719 244.292969 336.710938 243.742188 338.695312 244.183594 C 339.90625 244.511719 341.230469 245.394531 341.558594 246.167969 C 341.667969 246.609375 341.558594 247.378906 341.117188 247.820312 C 339.90625 248.703125 332.191406 248.59375 330.976562 247.710938 C 330.535156 247.378906 330.425781 246.828125 330.644531 246.386719 C 330.976562 245.617188 332.851562 244.84375 334.285156 244.511719 C 335.71875 244.074219 337.921875 243.960938 339.355469 244.183594 C 340.238281 244.402344 341.558594 244.84375 341.667969 245.175781 C 341.78125 245.503906 341.339844 246.058594 340.675781 246.277344 C 339.132812 247.050781 331.417969 247.929688 330.535156 246.828125 C 330.09375 246.386719 330.535156 244.953125 331.199219 244.402344 C 332.300781 243.410156 336.710938 243.632812 338.363281 243.742188 C 339.355469 243.851562 340.238281 243.851562 340.675781 244.292969 C 341.230469 244.734375 341.890625 245.945312 341.558594 246.496094 C 340.789062 247.710938 331.308594 248.371094 330.425781 247.269531 C 330.09375 246.828125 330.535156 245.617188 331.085938 245.066406 C 332.078125 244.183594 335.496094 243.960938 337.371094 244.074219 C 338.804688 244.074219 340.898438 244.402344 341.117188 244.84375 C 341.230469 245.175781 341.007812 245.726562 340.566406 245.945312 C 339.683594 246.496094 336.046875 245.285156 334.394531 245.835938 C 333.070312 246.167969 331.96875 248.042969 331.308594 247.820312 C 330.867188 247.710938 330.535156 246.058594 330.644531 245.945312 C 330.867188 245.726562 332.519531 246.71875 332.519531 246.9375 C 332.410156 247.160156 330.757812 247.710938 330.535156 247.488281 C 330.316406 247.269531 331.085938 245.726562 331.417969 245.617188 C 331.636719 245.617188 332.519531 246.828125 332.410156 247.160156 C 332.300781 247.488281 330.644531 247.601562 330.425781 247.378906 C 330.207031 246.9375 331.96875 244.625 333.179688 243.960938 C 334.503906 243.300781 336.710938 243.300781 338.253906 243.632812 C 339.796875 243.851562 342.222656 244.625 342.550781 245.503906 C 342.773438 246.058594 342.332031 247.050781 341.667969 247.378906 C 340.015625 248.261719 330.867188 246.058594 330.867188 245.503906 C 330.867188 245.066406 337.8125 244.183594 339.246094 244.292969 C 339.796875 244.402344 340.125 244.511719 340.238281 244.84375 C 340.347656 245.066406 340.238281 245.945312 339.796875 246.277344 C 338.804688 247.050781 333.070312 247.050781 332.300781 246.277344 C 331.96875 245.945312 331.859375 245.285156 332.191406 244.953125 C 332.851562 244.074219 338.253906 243.742188 340.125 244.074219 C 341.230469 244.292969 342.441406 244.734375 342.660156 245.394531 C 342.882812 245.945312 342.550781 247.378906 342 247.601562 C 341.339844 247.929688 340.015625 246.609375 338.695312 246.386719 C 337.039062 246.167969 333.734375 247.050781 332.519531 246.71875 C 331.859375 246.609375 331.308594 246.167969 331.308594 245.945312 C 331.199219 245.726562 331.75 245.394531 332.191406 245.285156 C 333.179688 244.84375 335.71875 244.625 337.261719 244.734375 C 338.695312 244.953125 340.898438 245.285156 341.339844 245.945312 C 341.558594 246.496094 341.339844 247.710938 340.898438 247.820312 C 340.347656 248.152344 339.132812 246.609375 337.921875 246.386719 C 336.046875 246.058594 331.199219 247.929688 330.425781 247.160156 C 330.09375 246.828125 330.09375 245.726562 330.535156 245.285156 C 331.199219 244.511719 333.734375 244.402344 335.386719 244.292969 C 337.039062 244.292969 339.574219 244.625 340.675781 245.175781 C 341.230469 245.503906 341.78125 245.945312 341.890625 246.496094 C 342 246.828125 341.667969 247.710938 341.339844 247.820312 C 340.898438 247.929688 340.125 246.71875 339.132812 246.496094 C 337.261719 246.277344 332.300781 248.480469 330.757812 248.261719 C 330.207031 248.152344 329.542969 247.820312 329.542969 247.488281 C 329.433594 246.828125 331.75 244.953125 333.070312 244.511719 C 334.171875 244.074219 335.605469 244.402344 336.820312 244.511719 C 338.03125 244.734375 339.683594 244.734375 340.238281 245.394531 C 340.789062 246.058594 341.007812 248.042969 340.675781 248.261719 C 340.238281 248.59375 338.695312 246.71875 337.480469 246.386719 C 336.378906 246.058594 334.835938 246.828125 333.84375 246.386719 C 333.070312 246.058594 331.96875 245.066406 332.078125 244.625 C 332.410156 243.960938 336.597656 243.519531 338.363281 243.851562 C 339.90625 244.183594 341.890625 245.066406 342.332031 245.945312 C 342.550781 246.496094 342.332031 247.378906 341.890625 247.710938 C 340.789062 248.371094 334.613281 246.386719 333.402344 245.617188 C 332.960938 245.394531 332.628906 244.953125 332.742188 244.84375 C 332.742188 244.625 333.292969 244.511719 333.84375 244.511719 C 334.835938 244.292969 337.703125 243.851562 338.582031 244.511719 C 339.023438 244.84375 339.464844 245.945312 339.132812 246.386719 C 338.472656 247.378906 331.417969 248.042969 330.867188 247.269531 C 330.535156 246.9375 330.867188 246.167969 331.417969 245.726562 C 332.300781 244.953125 335.496094 244.734375 337.371094 244.953125 C 338.914062 245.175781 341.339844 245.945312 341.890625 246.71875 C 342.109375 247.160156 342 248.152344 341.78125 248.371094 C 341.449219 248.59375 340.347656 248.261719 340.347656 248.261719 " clip-rule="nonzero"/></clipPath></defs><g clip-path="url(#becc880550)"><g clip-path="url(#9a73b716e5)"><g clip-path="url(#581be3613e)"><path fill="#fea800" d="M 0.59375 441.972656 L 194.785156 34.648438 L 366.007812 116.277344 L 171.816406 523.605469 Z M 0.59375 441.972656 " fill-opacity="1" fill-rule="nonzero"/></g></g></g><g clip-path="url(#0c6c8fd86c)"><g clip-path="url(#abc24d5b80)"><g clip-path="url(#3448076331)"><path fill="#ffd900" d="M 375.996094 168.066406 L 539.382812 91.148438 L 721.15625 477.273438 L 557.769531 554.191406 Z M 375.996094 168.066406 " fill-opacity="1" fill-rule="nonzero"/></g></g></g><g clip-path="url(#5491803bdd)"><g clip-path="url(#3d322846cc)"><g clip-path="url(#5135744b2e)"><path fill="#5e9918" d="M 201.433594 459.851562 L 393.804688 55.761719 L 565.074219 137.296875 L 372.703125 541.386719 Z M 201.433594 459.851562 " fill-opacity="1" fill-rule="nonzero"/></g></g></g><path fill="#ffffff" d="M 367.253906 332.046875 C 364.390625 327.507812 363.050781 323.378906 363.011719 319.328125 C 362.972656 315.191406 364.25 311.023438 367.304688 306.492188 C 367.304688 306.492188 401.269531 245.835938 401.558594 245.496094 C 408.996094 236.882812 423.785156 236.671875 430.640625 245.875 C 430.792969 246.082031 435.859375 254.886719 435.859375 254.886719 C 435.859375 254.886719 440.96875 245.835938 441.261719 245.496094 C 448.699219 236.882812 463.496094 236.671875 470.339844 245.875 C 470.492188 246.082031 475.597656 254.933594 475.597656 254.933594 C 475.597656 254.933594 480.730469 245.835938 481.023438 245.496094 C 488.457031 236.882812 503.257812 236.671875 510.101562 245.875 C 510.253906 246.082031 545.179688 306.875 545.238281 306.996094 C 549.726562 316.042969 549.710938 322.753906 545.21875 331.667969 C 545.164062 331.773438 510.386719 392.335938 510.386719 392.335938 C 507.1875 397.398438 501.382812 400.105469 495.429688 400.082031 C 489.566406 400.058594 483.765625 397.359375 480.519531 392.464844 C 480.425781 392.324219 475.597656 383.695312 475.597656 383.695312 L 470.625 392.335938 C 467.425781 397.398438 461.621094 400.105469 455.667969 400.082031 C 449.804688 400.058594 444.003906 397.359375 440.757812 392.464844 C 440.664062 392.324219 435.859375 383.742188 435.859375 383.742188 L 430.925781 392.335938 C 427.722656 397.398438 421.910156 400.105469 415.96875 400.082031 C 410.09375 400.058594 404.304688 397.359375 401.054688 392.464844 C 400.964844 392.324219 367.253906 332.046875 367.253906 332.046875 Z M 483.289062 370.300781 L 491.652344 385.265625 C 492.5 386.414062 494.039062 386.824219 495.484375 386.832031 C 496.882812 386.832031 498.371094 386.480469 499.140625 385.3125 L 533.4375 325.585938 C 535.6875 321.058594 535.675781 317.617188 533.429688 313.027344 L 499.28125 253.550781 C 497.339844 251.289062 493.601562 251.6875 491.425781 253.769531 L 483.289062 268.328125 L 505.285156 306.644531 C 505.351562 306.757812 505.417969 306.875 505.476562 306.996094 C 509.964844 316.042969 509.949219 322.753906 505.457031 331.667969 C 505.402344 331.773438 505.34375 331.878906 505.285156 331.984375 Z M 443.554688 370.34375 L 451.890625 385.265625 C 452.738281 386.414062 454.277344 386.824219 455.722656 386.832031 C 457.121094 386.832031 458.609375 386.480469 459.378906 385.3125 L 493.675781 325.585938 C 495.925781 321.058594 495.914062 317.617188 493.667969 313.027344 L 469.996094 271.800781 C 469.957031 271.726562 469.910156 271.652344 469.871094 271.582031 L 459.519531 253.550781 C 457.578125 251.289062 453.839844 251.6875 451.667969 253.769531 L 443.554688 268.289062 L 465.582031 306.644531 C 465.648438 306.757812 465.714844 306.875 465.773438 306.996094 C 470.261719 316.042969 470.242188 322.753906 465.753906 331.667969 C 465.703125 331.773438 465.640625 331.878906 465.582031 331.984375 Z M 411.964844 253.769531 L 378.757812 313.179688 C 378.652344 313.359375 376.246094 317.398438 376.265625 319.195312 C 376.285156 321.109375 378.691406 325.339844 378.757812 325.453125 L 412.191406 385.265625 C 413.039062 386.414062 414.574219 386.824219 416.019531 386.832031 C 417.417969 386.832031 418.910156 386.480469 419.679688 385.3125 L 453.972656 325.585938 C 456.226562 321.058594 456.210938 317.617188 453.964844 313.027344 L 419.8125 253.550781 C 417.875 251.289062 414.132812 251.6875 411.964844 253.769531 Z M 411.964844 253.769531 " fill-opacity="1" fill-rule="evenodd"/><g clip-path="url(#e051f345d3)"><g clip-path="url(#d75bf28829)"><path fill="#5e9918" d="M 293.5 154.121094 L 469.871094 154.121094 L 469.871094 490.328125 L 293.5 490.328125 Z M 293.5 154.121094 " fill-opacity="1" fill-rule="nonzero"/></g></g><g clip-path="url(#6a7ff98414)"><path fill="#ffffff" d="M 288.472656 334.210938 C 285.675781 329.777344 284.367188 325.746094 284.328125 321.789062 C 284.289062 317.75 285.539062 313.679688 288.523438 309.25 C 288.523438 309.25 321.699219 250 321.984375 249.667969 C 329.246094 241.253906 343.695312 241.046875 350.390625 250.039062 C 350.539062 250.238281 355.492188 258.84375 355.492188 258.84375 C 355.492188 258.84375 360.480469 250 360.765625 249.667969 C 368.03125 241.253906 382.484375 241.046875 389.171875 250.039062 C 389.320312 250.238281 394.304688 258.886719 394.304688 258.886719 C 394.304688 258.886719 399.324219 250 399.609375 249.667969 C 406.871094 241.253906 421.324219 241.046875 428.011719 250.039062 C 428.160156 250.238281 462.277344 309.625 462.335938 309.742188 C 466.71875 318.578125 466.703125 325.136719 462.316406 333.84375 C 462.265625 333.945312 428.292969 393.109375 428.292969 393.109375 C 425.164062 398.054688 419.492188 400.695312 413.679688 400.675781 C 407.953125 400.648438 402.289062 398.015625 399.117188 393.230469 C 399.023438 393.09375 394.304688 384.667969 394.304688 384.667969 L 389.449219 393.109375 C 386.324219 398.054688 380.652344 400.695312 374.839844 400.675781 C 369.109375 400.648438 363.445312 398.015625 360.273438 393.230469 C 360.183594 393.09375 355.492188 384.710938 355.492188 384.710938 L 350.667969 393.109375 C 347.542969 398.054688 341.863281 400.695312 336.058594 400.675781 C 330.324219 400.648438 324.664062 398.015625 321.492188 393.230469 C 321.402344 393.09375 288.472656 334.210938 288.472656 334.210938 Z M 401.820312 371.582031 L 409.992188 386.199219 C 410.820312 387.320312 412.320312 387.722656 413.734375 387.726562 C 415.097656 387.726562 416.554688 387.386719 417.304688 386.246094 L 450.804688 327.902344 C 453.007812 323.480469 452.992188 320.121094 450.800781 315.632812 L 417.441406 257.535156 C 415.546875 255.328125 411.894531 255.714844 409.769531 257.75 L 401.820312 271.96875 L 423.304688 309.398438 C 423.371094 309.511719 423.4375 309.625 423.496094 309.742188 C 427.875 318.578125 427.863281 325.136719 423.476562 333.84375 C 423.421875 333.945312 423.363281 334.050781 423.304688 334.152344 Z M 363.007812 371.621094 L 371.148438 386.199219 C 371.980469 387.320312 373.480469 387.722656 374.890625 387.726562 C 376.257812 387.726562 377.714844 387.386719 378.464844 386.246094 L 411.964844 327.902344 C 414.167969 323.480469 414.152344 320.121094 411.957031 315.632812 L 388.835938 275.363281 C 388.796875 275.292969 388.75 275.21875 388.710938 275.148438 L 378.601562 257.535156 C 376.703125 255.328125 373.054688 255.714844 370.929688 257.75 L 363.007812 271.929688 L 384.523438 309.398438 C 384.589844 309.511719 384.652344 309.625 384.710938 309.742188 C 389.09375 318.578125 389.074219 325.136719 384.691406 333.84375 C 384.640625 333.945312 384.582031 334.050781 384.523438 334.152344 Z M 332.148438 257.75 L 299.710938 315.78125 C 299.605469 315.957031 297.257812 319.90625 297.277344 321.660156 C 297.296875 323.53125 299.644531 327.660156 299.710938 327.769531 L 332.367188 386.199219 C 333.195312 387.320312 334.699219 387.722656 336.109375 387.726562 C 337.476562 387.726562 338.933594 387.386719 339.683594 386.246094 L 373.183594 327.902344 C 375.382812 323.480469 375.371094 320.121094 373.175781 315.632812 L 339.8125 257.535156 C 337.921875 255.328125 334.265625 255.714844 332.148438 257.75 Z M 332.148438 257.75 " fill-opacity="1" fill-rule="evenodd"/></g><g clip-path="url(#aff7d4ca0e)"><g clip-path="url(#9467165caa)"><path fill="#5e9918" d="M 236.832031 194.753906 L 382.125 194.753906 L 382.125 449.582031 L 236.832031 449.582031 Z M 236.832031 194.753906 " fill-opacity="1" fill-rule="nonzero"/></g></g><path stroke-linecap="butt" transform="matrix(-0.319201, 0.677283, -0.677283, -0.319201, 336.650329, 175.808018)" fill="none" stroke-linejoin="miter" d="M -0.00227229 4.998547 L 156.523854 5.000818 " stroke="#fea800" stroke-width="10" stroke-opacity="1" stroke-miterlimit="4"/><g clip-path="url(#0c56392c1c)"><path fill="#ffffff" d="M 205.691406 335.640625 C 202.871094 331.167969 201.550781 327.097656 201.511719 323.109375 C 201.472656 319.035156 202.734375 314.929688 205.746094 310.460938 C 205.746094 310.460938 239.207031 250.703125 239.492188 250.371094 C 246.816406 241.882812 261.390625 241.671875 268.140625 250.742188 C 268.292969 250.945312 273.285156 259.621094 273.285156 259.621094 C 273.285156 259.621094 278.320312 250.703125 278.609375 250.371094 C 285.933594 241.882812 300.511719 241.671875 307.257812 250.742188 C 307.40625 250.945312 312.433594 259.667969 312.433594 259.667969 C 312.433594 259.667969 317.496094 250.703125 317.78125 250.371094 C 325.109375 241.882812 339.6875 241.671875 346.429688 250.742188 C 346.582031 250.945312 380.988281 310.839844 381.046875 310.960938 C 385.46875 319.871094 385.457031 326.484375 381.027344 335.265625 C 380.976562 335.371094 346.710938 395.039062 346.710938 395.039062 C 343.558594 400.027344 337.839844 402.691406 331.976562 402.671875 C 326.199219 402.644531 320.484375 399.988281 317.285156 395.164062 C 317.195312 395.027344 312.433594 386.527344 312.433594 386.527344 L 307.539062 395.039062 C 304.382812 400.027344 298.664062 402.691406 292.800781 402.671875 C 287.023438 402.644531 281.3125 399.988281 278.113281 395.164062 C 278.019531 395.027344 273.285156 386.570312 273.285156 386.570312 L 268.421875 395.039062 C 265.269531 400.027344 259.542969 402.691406 253.6875 402.671875 C 247.902344 402.644531 242.195312 399.988281 238.996094 395.164062 C 238.90625 395.027344 205.691406 335.640625 205.691406 335.640625 Z M 320.015625 373.332031 L 328.253906 388.074219 C 329.089844 389.203125 330.605469 389.609375 332.027344 389.613281 C 333.40625 389.613281 334.875 389.269531 335.632812 388.117188 L 369.421875 329.273438 C 371.640625 324.8125 371.625 321.425781 369.414062 316.902344 L 335.769531 258.300781 C 333.855469 256.074219 330.175781 256.46875 328.03125 258.519531 L 320.015625 272.863281 L 341.683594 310.613281 C 341.75 310.722656 341.816406 310.839844 341.875 310.960938 C 346.292969 319.871094 346.28125 326.484375 341.855469 335.265625 C 341.800781 335.371094 341.742188 335.476562 341.683594 335.578125 Z M 280.867188 373.371094 L 289.082031 388.074219 C 289.917969 389.203125 291.429688 389.609375 292.855469 389.613281 C 294.230469 389.613281 295.699219 389.269531 296.457031 388.117188 L 330.246094 329.273438 C 332.464844 324.8125 332.453125 321.425781 330.238281 316.902344 L 306.917969 276.285156 C 306.878906 276.210938 306.832031 276.140625 306.792969 276.066406 L 296.59375 258.300781 C 294.683594 256.074219 291 256.46875 288.859375 258.519531 L 280.867188 272.824219 L 302.570312 310.613281 C 302.632812 310.722656 302.699219 310.839844 302.757812 310.960938 C 307.179688 319.871094 307.160156 326.484375 302.738281 335.265625 C 302.6875 335.371094 302.628906 335.476562 302.570312 335.578125 Z M 249.742188 258.519531 L 217.027344 317.050781 C 216.921875 317.226562 214.550781 321.210938 214.570312 322.980469 C 214.589844 324.867188 216.960938 329.03125 217.027344 329.140625 L 249.964844 388.074219 C 250.800781 389.203125 252.316406 389.609375 253.738281 389.613281 C 255.117188 389.613281 256.585938 389.269531 257.34375 388.117188 L 291.128906 329.273438 C 293.351562 324.8125 293.335938 321.425781 291.125 316.902344 L 257.472656 258.300781 C 255.566406 256.074219 251.878906 256.46875 249.742188 258.519531 Z M 249.742188 258.519531 " fill-opacity="1" fill-rule="evenodd"/></g><g clip-path="url(#f1fc406e7e)"><g clip-path="url(#22781489a8)"><path fill="#fea800" d="M 172.78125 79.191406 L 371.480469 79.191406 L 371.480469 316.695312 L 172.78125 316.695312 Z M 172.78125 79.191406 " fill-opacity="1" fill-rule="nonzero"/></g></g><g clip-path="url(#a0ac298574)"><g clip-path="url(#936e3554f2)"><path fill="#ff7e00" d="M 142.164062 281.863281 L 291.746094 281.863281 L 291.746094 433.78125 L 142.164062 433.78125 Z M 142.164062 281.863281 " fill-opacity="1" fill-rule="nonzero"/></g></g><g clip-path="url(#d7506c4454)"><g clip-path="url(#be1b9419bd)"><path fill="#ff7e00" d="M 145.511719 296.375 L 290.628906 296.375 L 290.628906 442.625 L 145.511719 442.625 Z M 145.511719 296.375 " fill-opacity="1" fill-rule="nonzero"/></g></g><g clip-path="url(#0eb13860c1)"><g clip-path="url(#8549e67893)"><g clip-path="url(#58a2d8f020)"><path fill="#5e9918" d="M 183.039062 350.394531 L 291.855469 314.996094 L 326.308594 420.917969 L 217.492188 456.316406 Z M 183.039062 350.394531 " fill-opacity="1" fill-rule="nonzero"/></g></g></g><g clip-path="url(#03ce985065)"><path fill="#fcfaed" d="M 123.175781 334.515625 C 120.28125 329.921875 118.925781 325.742188 118.886719 321.644531 C 118.84375 317.460938 120.140625 313.242188 123.230469 308.65625 C 123.230469 308.65625 157.597656 247.28125 157.894531 246.9375 C 165.417969 238.21875 180.382812 238.003906 187.316406 247.320312 C 187.472656 247.527344 192.601562 256.441406 192.601562 256.441406 C 192.601562 256.441406 197.773438 247.28125 198.066406 246.9375 C 205.589844 238.21875 220.566406 238.003906 227.492188 247.320312 C 227.644531 247.527344 232.808594 256.488281 232.808594 256.488281 C 232.808594 256.488281 238.007812 247.28125 238.300781 246.9375 C 245.824219 238.21875 260.800781 238.003906 267.726562 247.320312 C 267.878906 247.527344 303.21875 309.046875 303.28125 309.167969 C 307.820312 318.320312 307.808594 325.113281 303.261719 334.132812 C 303.207031 334.238281 268.015625 395.523438 268.015625 395.523438 C 264.777344 400.648438 258.902344 403.382812 252.878906 403.363281 C 246.945312 403.335938 241.078125 400.605469 237.792969 395.652344 C 237.699219 395.511719 232.808594 386.777344 232.808594 386.777344 L 227.78125 395.523438 C 224.542969 400.648438 218.667969 403.382812 212.644531 403.363281 C 206.710938 403.335938 200.84375 400.605469 197.558594 395.652344 C 197.464844 395.511719 192.601562 386.824219 192.601562 386.824219 L 187.605469 395.523438 C 184.367188 400.648438 178.488281 403.382812 172.472656 403.363281 C 166.53125 403.335938 160.667969 400.605469 157.382812 395.652344 C 157.289062 395.511719 123.175781 334.515625 123.175781 334.515625 Z M 240.59375 373.226562 L 249.058594 388.367188 C 249.917969 389.527344 251.472656 389.945312 252.933594 389.949219 C 254.347656 389.949219 255.855469 389.59375 256.636719 388.414062 L 291.335938 327.976562 C 293.617188 323.398438 293.605469 319.917969 291.332031 315.269531 L 256.777344 255.085938 C 254.8125 252.796875 251.027344 253.199219 248.828125 255.304688 L 240.59375 270.039062 L 262.851562 308.8125 C 262.917969 308.925781 262.984375 309.046875 263.046875 309.167969 C 267.585938 318.320312 267.574219 325.113281 263.027344 334.132812 C 262.972656 334.238281 262.910156 334.347656 262.851562 334.453125 Z M 200.386719 373.265625 L 208.824219 388.367188 C 209.679688 389.527344 211.238281 389.945312 212.699219 389.949219 C 214.113281 389.949219 215.621094 389.59375 216.402344 388.414062 L 251.101562 327.976562 C 253.382812 323.398438 253.371094 319.917969 251.097656 315.269531 L 227.144531 273.554688 C 227.101562 273.480469 227.054688 273.40625 227.015625 273.332031 L 216.542969 255.085938 C 214.578125 252.796875 210.792969 253.199219 208.59375 255.304688 L 200.386719 270 L 222.675781 308.8125 C 222.746094 308.925781 222.8125 309.046875 222.871094 309.167969 C 227.410156 318.320312 227.390625 325.113281 222.851562 334.132812 C 222.796875 334.238281 222.738281 334.347656 222.675781 334.453125 Z M 168.421875 255.304688 L 134.820312 315.421875 C 134.710938 315.605469 132.277344 319.695312 132.296875 321.511719 C 132.316406 323.449219 134.75 327.726562 134.820312 327.84375 L 168.648438 388.367188 C 169.507812 389.527344 171.0625 389.945312 172.523438 389.949219 C 173.941406 389.949219 175.449219 389.59375 176.226562 388.414062 L 210.929688 327.976562 C 213.207031 323.398438 213.195312 319.917969 210.921875 315.269531 L 176.359375 255.085938 C 174.402344 252.796875 170.613281 253.199219 168.421875 255.304688 Z M 168.421875 255.304688 " fill-opacity="1" fill-rule="evenodd"/></g><path stroke-linecap="butt" transform="matrix(0.339104, 0.66754, -0.66754, 0.339104, 261.478785, 261.721016)" fill="none" stroke-linejoin="miter" d="M 0.00142725 5.001415 L 42.34482 5.000581 " stroke="#fea800" stroke-width="10" stroke-opacity="1" stroke-miterlimit="4"/><path fill="#ff9900" d="M 268.296875 350.992188 C 255.113281 396.511719 206.777344 422.671875 160.300781 409.261719 C 113.769531 395.890625 86.78125 348.050781 99.941406 302.535156 C 113.070312 257.027344 161.460938 230.949219 208.019531 244.289062 C 254.414062 257.699219 281.488281 305.445312 268.296875 350.992188 Z M 268.296875 350.992188 " fill-opacity="1" fill-rule="nonzero"/><path fill="#ffd900" d="M 267.839844 345.851562 C 254.4375 392.203125 205.917969 419.035156 159.4375 405.613281 C 112.910156 392.253906 86.105469 343.742188 99.507812 297.394531 C 112.910156 251.058594 161.460938 224.304688 208.019531 237.660156 C 254.414062 251.054688 281.324219 299.472656 267.839844 345.851562 Z M 267.839844 345.851562 " fill-opacity="1" fill-rule="nonzero"/><path fill="#fff600" d="M 232.667969 249.648438 C 225.214844 244.601562 217.117188 240.304688 208.019531 237.660156 C 161.460938 224.304688 112.910156 251.054688 99.507812 297.394531 C 96.976562 306.183594 96.304688 314.976562 96.496094 323.675781 C 133.632812 317.085938 200.589844 298.5625 232.667969 249.648438 Z M 232.667969 249.648438 " fill-opacity="1" fill-rule="nonzero"/><path fill="#ffa900" d="M 247.144531 339.902344 C 237.082031 374.886719 200.429688 395.167969 165.386719 384.980469 C 130.296875 374.886719 110.058594 338.332031 120.203125 303.351562 C 130.324219 268.386719 166.949219 248.265625 201.988281 258.292969 C 237.03125 268.410156 257.265625 304.882812 247.144531 339.902344 Z M 247.144531 339.902344 " fill-opacity="1" fill-rule="nonzero"/><path fill="#ff9900" d="M 183.792969 389.96875 C 177.367188 389.96875 170.953125 389.050781 164.726562 387.242188 C 147.152344 382.1875 132.605469 370.605469 123.765625 354.640625 C 114.921875 338.667969 112.851562 320.222656 117.933594 302.699219 C 126.339844 273.648438 153.386719 253.359375 183.703125 253.359375 C 190.082031 253.359375 196.453125 254.257812 202.640625 256.027344 C 238.878906 266.496094 259.859375 304.414062 249.417969 340.554688 C 241.046875 369.648438 214.0625 389.96875 183.792969 389.96875 Z M 183.703125 258.070312 C 155.480469 258.070312 130.300781 276.960938 122.472656 304.003906 C 117.742188 320.320312 119.667969 337.492188 127.898438 352.359375 C 136.128906 367.226562 149.675781 378.007812 166.042969 382.714844 C 171.84375 384.402344 177.816406 385.257812 183.792969 385.257812 C 211.96875 385.257812 237.085938 366.339844 244.875 339.253906 C 254.601562 305.597656 235.066406 270.296875 201.332031 260.554688 C 195.574219 258.90625 189.644531 258.070312 183.703125 258.070312 Z M 183.703125 258.070312 " fill-opacity="1" fill-rule="nonzero"/><path fill="#ffffff" d="M 260.257812 303.574219 C 257.167969 273.261719 226.84375 253.578125 226.539062 253.382812 L 229.332031 249.027344 C 230.667969 249.878906 262.074219 270.28125 265.417969 303.050781 Z M 260.257812 303.574219 " fill-opacity="1" fill-rule="nonzero"/><path fill="#ffffa7" d="M 169.167969 402.832031 C 121.128906 394.992188 106.605469 352.628906 106.464844 352.203125 L 111.386719 350.585938 L 108.925781 351.394531 L 111.386719 350.582031 C 111.519531 350.976562 125.144531 390.40625 170.003906 397.730469 Z M 169.167969 402.832031 " fill-opacity="1" fill-rule="nonzero"/><path fill="#ffffff" d="M 221.394531 246.265625 C 221.015625 247.5 215.957031 247.015625 210.113281 245.191406 C 204.25 243.40625 199.835938 240.949219 200.214844 239.738281 C 200.589844 238.503906 205.644531 238.988281 211.484375 240.785156 C 217.304688 242.601562 221.742188 245.042969 221.394531 246.265625 Z M 221.394531 246.265625 " fill-opacity="1" fill-rule="nonzero"/><path fill="#ff8700" d="M 190.039062 362.226562 C 185.734375 357.515625 181.507812 352.792969 177.230469 348.082031 C 174.136719 344.65625 171.042969 341.246094 167.945312 337.835938 C 167.703125 337.570312 167.488281 337.300781 167.246094 337.019531 C 167.082031 336.804688 167.191406 336.578125 167.433594 336.550781 C 167.703125 336.507812 167.917969 336.480469 168.160156 336.46875 C 171.847656 336.121094 175.507812 335.542969 179.007812 334.386719 C 179.222656 334.175781 179.652344 334.375 179.867188 334.132812 C 180.566406 333.878906 181.238281 333.625 181.910156 333.355469 C 184.011719 332.441406 186.109375 331.476562 187.996094 330.214844 C 193.589844 326.5625 197.167969 321.78125 198.515625 315.757812 C 198.8125 314.359375 199.027344 314.5625 200.15625 314.507812 C 200.398438 314.507812 200.640625 314.507812 200.855469 314.507812 C 203.601562 314.507812 206.375 314.496094 209.09375 314.535156 C 209.953125 314.535156 210.492188 314.320312 210.976562 313.675781 C 212.507812 311.488281 214.097656 309.367188 215.710938 307.230469 C 215.820312 307.085938 215.925781 306.9375 215.953125 306.777344 C 216.035156 306.613281 215.925781 306.425781 215.710938 306.414062 C 215.445312 306.375 215.144531 306.375 214.851562 306.375 C 212.589844 306.359375 210.332031 306.359375 208.066406 306.359375 C 205.109375 306.359375 202.09375 306.375 199.132812 306.359375 C 198.378906 306.359375 198.324219 306.308594 198.167969 305.648438 C 197.761719 303.460938 196.925781 301.378906 195.527344 299.5 C 195.230469 299.085938 194.90625 298.640625 194.582031 298.226562 C 194.453125 298.089844 194.339844 297.941406 194.394531 297.78125 C 194.5 297.554688 194.691406 297.566406 194.878906 297.566406 C 195.203125 297.554688 195.582031 297.554688 195.875 297.554688 C 200.101562 297.554688 204.351562 297.554688 208.578125 297.554688 C 208.953125 297.554688 209.359375 297.527344 209.734375 297.527344 C 210.109375 297.554688 210.382812 297.40625 210.59375 297.136719 C 210.808594 296.910156 210.972656 296.65625 211.160156 296.402344 C 212.585938 294.425781 214.011719 292.480469 215.441406 290.496094 C 215.652344 290.214844 216.085938 289.957031 215.925781 289.636719 C 215.710938 289.179688 215.171875 289.382812 214.769531 289.382812 C 207.152344 289.382812 199.5625 289.382812 191.972656 289.382812 C 185.382812 289.355469 178.789062 289.355469 172.195312 289.355469 C 166.730469 289.355469 161.242188 289.382812 155.75 289.34375 C 154.941406 289.34375 154.539062 289.59375 154.136719 290.160156 C 152.683594 292.214844 151.121094 294.226562 149.667969 296.265625 C 149.507812 296.507812 149.292969 296.761719 149.15625 297.03125 C 149.050781 297.234375 149.210938 297.472656 149.453125 297.488281 C 149.667969 297.515625 149.832031 297.515625 150.046875 297.515625 C 152.304688 297.527344 154.566406 297.515625 156.800781 297.527344 C 160.542969 297.566406 164.257812 297.664062 167.96875 297.890625 C 171.523438 298.171875 175.53125 297.824219 178.761719 299.5 C 181.371094 300.871094 182.125 303.273438 183.445312 305.511719 C 183.550781 305.714844 183.742188 305.941406 183.632812 306.25 C 183.175781 306.464844 182.609375 306.359375 182.125 306.359375 C 173.40625 306.371094 164.6875 306.371094 155.992188 306.332031 C 155.160156 306.332031 154.59375 306.535156 154.113281 307.21875 C 152.578125 309.367188 150.988281 311.5 149.402344 313.648438 C 149.292969 313.78125 149.183594 313.929688 149.132812 314.089844 C 149.054688 314.265625 149.132812 314.4375 149.347656 314.480469 C 149.667969 314.507812 149.992188 314.535156 150.34375 314.535156 C 156.261719 314.535156 162.183594 314.535156 168.105469 314.535156 C 173.351562 314.535156 178.679688 314.535156 183.957031 314.535156 C 185.03125 314.535156 185.136719 314.613281 185.085938 315.570312 C 185.085938 315.863281 185.0625 316.144531 184.980469 316.441406 C 184.496094 319.273438 183.203125 321.730469 180.992188 323.824219 C 178.570312 326.242188 175.507812 327.769531 172.058594 328.777344 C 168.613281 329.757812 165.0625 330.121094 161.402344 330.144531 C 158.820312 330.160156 156.179688 330.160156 153.597656 330.160156 C 153.273438 330.160156 152.953125 330.144531 152.601562 330.160156 C 152.089844 330.199219 151.957031 330.308594 151.929688 330.816406 C 151.929688 332.964844 151.929688 335.152344 151.929688 337.316406 C 151.929688 337.785156 152.089844 338.148438 152.414062 338.46875 C 152.683594 338.738281 152.902344 339.019531 153.140625 339.289062 C 156.261719 342.75 159.355469 346.203125 162.480469 349.679688 C 165.550781 353.085938 168.613281 356.539062 171.710938 359.960938 C 173.460938 361.933594 175.238281 363.894531 177.011719 365.839844 C 179.164062 368.253906 181.347656 370.671875 183.5 373.0625 L 199.835938 373.0625 C 196.578125 369.460938 193.269531 365.839844 190.039062 362.226562 Z M 190.039062 362.226562 " fill-opacity="1" fill-rule="nonzero"/><path fill="#ffff90" d="M 191.167969 357.824219 C 186.863281 353.113281 182.640625 348.386719 178.359375 343.675781 C 175.261719 340.253906 172.167969 336.84375 169.074219 333.433594 C 168.832031 333.164062 168.613281 332.898438 168.375 332.617188 C 168.210938 332.398438 168.316406 332.171875 168.5625 332.144531 C 168.832031 332.105469 169.046875 332.078125 169.289062 332.066406 C 172.976562 331.71875 176.636719 331.140625 180.132812 329.984375 C 180.347656 329.769531 180.78125 329.972656 180.992188 329.730469 C 181.695312 329.476562 182.367188 329.222656 183.042969 328.953125 C 185.140625 328.042969 187.238281 327.074219 189.121094 325.8125 C 194.722656 322.160156 198.296875 317.382812 199.644531 311.355469 C 199.941406 309.957031 200.15625 310.160156 201.285156 310.105469 C 201.527344 310.105469 201.773438 310.105469 201.988281 310.105469 C 204.730469 310.105469 207.503906 310.09375 210.21875 310.132812 C 211.082031 310.132812 211.621094 309.917969 212.105469 309.273438 C 213.640625 307.085938 215.226562 304.964844 216.839844 302.832031 C 216.949219 302.683594 217.054688 302.535156 217.082031 302.371094 C 217.160156 302.210938 217.054688 302.027344 216.839844 302.011719 C 216.570312 301.972656 216.273438 301.972656 215.976562 301.972656 C 213.71875 301.957031 211.457031 301.957031 209.199219 301.957031 C 206.238281 301.957031 203.222656 301.972656 200.261719 301.957031 C 199.507812 301.957031 199.453125 301.902344 199.292969 301.246094 C 198.890625 299.054688 198.054688 296.976562 196.65625 295.097656 C 196.359375 294.679688 196.035156 294.238281 195.714844 293.820312 C 195.578125 293.6875 195.46875 293.539062 195.527344 293.378906 C 195.632812 293.152344 195.824219 293.167969 196.011719 293.167969 C 196.332031 293.152344 196.707031 293.152344 197.003906 293.152344 C 201.230469 293.152344 205.480469 293.152344 209.703125 293.152344 C 210.082031 293.152344 210.488281 293.125 210.863281 293.125 C 211.242188 293.152344 211.507812 293.003906 211.726562 292.734375 C 211.941406 292.507812 212.101562 292.25 212.289062 291.996094 C 213.714844 290.023438 215.140625 288.078125 216.566406 286.089844 C 216.78125 285.808594 217.214844 285.554688 217.050781 285.230469 C 216.839844 284.777344 216.296875 284.976562 215.894531 284.976562 C 208.28125 284.976562 200.691406 284.976562 193.101562 284.976562 C 186.507812 284.949219 179.914062 284.949219 173.320312 284.949219 C 167.859375 284.949219 162.367188 284.976562 156.878906 284.9375 C 156.070312 284.9375 155.667969 285.191406 155.261719 285.757812 C 153.808594 287.808594 152.25 289.824219 150.796875 291.863281 C 150.636719 292.105469 150.417969 292.359375 150.285156 292.628906 C 150.175781 292.828125 150.339844 293.070312 150.582031 293.085938 C 150.796875 293.109375 150.960938 293.109375 151.171875 293.109375 C 153.433594 293.121094 155.695312 293.109375 157.929688 293.121094 C 161.671875 293.164062 165.382812 293.257812 169.097656 293.484375 C 172.648438 293.769531 176.660156 293.417969 179.890625 295.097656 C 182.5 296.464844 183.25 298.867188 184.574219 301.109375 C 184.679688 301.3125 184.867188 301.539062 184.761719 301.847656 C 184.304688 302.0625 183.738281 301.957031 183.253906 301.957031 C 174.535156 301.972656 165.816406 301.972656 157.121094 301.933594 C 156.289062 301.933594 155.722656 302.132812 155.238281 302.816406 C 153.703125 304.964844 152.113281 307.101562 150.53125 309.246094 C 150.417969 309.382812 150.316406 309.527344 150.257812 309.6875 C 150.179688 309.863281 150.257812 310.039062 150.472656 310.078125 C 150.796875 310.105469 151.121094 310.132812 151.46875 310.132812 C 157.390625 310.132812 163.3125 310.132812 169.230469 310.132812 C 174.480469 310.132812 179.808594 310.132812 185.082031 310.132812 C 186.160156 310.132812 186.265625 310.214844 186.210938 311.167969 C 186.210938 311.464844 186.1875 311.742188 186.105469 312.039062 C 185.621094 314.875 184.328125 317.328125 182.121094 319.421875 C 179.699219 321.839844 176.632812 323.367188 173.1875 324.375 C 169.746094 325.355469 166.191406 325.71875 162.53125 325.746094 C 159.945312 325.757812 157.308594 325.757812 154.726562 325.757812 C 154.402344 325.757812 154.078125 325.746094 153.730469 325.757812 C 153.21875 325.796875 153.082031 325.902344 153.058594 326.417969 C 153.058594 328.5625 153.058594 330.75 153.058594 332.914062 C 153.058594 333.382812 153.21875 333.746094 153.542969 334.066406 C 153.8125 334.335938 154.027344 334.617188 154.265625 334.886719 C 157.390625 338.347656 160.484375 341.800781 163.609375 345.273438 C 166.675781 348.683594 169.746094 352.132812 172.839844 355.558594 C 174.585938 357.53125 176.363281 359.488281 178.140625 361.433594 C 180.292969 363.851562 182.472656 366.269531 184.625 368.65625 L 200.960938 368.65625 C 197.710938 365.058594 194.398438 361.433594 191.167969 357.824219 Z M 191.167969 357.824219 " fill-opacity="1" fill-rule="nonzero"/><path stroke-linecap="butt" transform="matrix(0.524646, 0.534179, -0.534179, 0.524646, 428.032179, 239.59177)" fill="none" stroke-linejoin="miter" d="M -0.00193456 5.00167 L 23.232806 4.999073 " stroke="#5e9918" stroke-width="10" stroke-opacity="1" stroke-miterlimit="4"/><path stroke-linecap="butt" transform="matrix(0.377727, -0.64647, 0.64647, 0.377727, 434.622084, 258.431181)" fill="none" stroke-linejoin="miter" d="M 0.000123259 5.001527 L 15.927461 5.000663 " stroke="#ffffff" stroke-width="10" stroke-opacity="1" stroke-miterlimit="4"/><g clip-path="url(#1ec8ac35a3)"><g clip-path="url(#ff982b9b39)"><path fill="#ffffff" d="M 325.132812 239.222656 L 347.1875 239.222656 L 347.1875 252.890625 L 325.132812 252.890625 Z M 325.132812 239.222656 " fill-opacity="1" fill-rule="nonzero"/></g></g></svg>